<?xml version="1.0" encoding="utf-8" standalone="no"?>
<!DOCTYPE svg PUBLIC "-//W3C//DTD SVG 1.1//EN"
  "http://www.w3.org/Graphics/SVG/1.1/DTD/svg11.dtd">
<svg xmlns:xlink="http://www.w3.org/1999/xlink" width="972pt" height="612pt" viewBox="0 0 972 612" xmlns="http://www.w3.org/2000/svg" version="1.1">
 <metadata>
  <rdf:RDF xmlns:dc="http://purl.org/dc/elements/1.1/" xmlns:cc="http://creativecommons.org/ns#" xmlns:rdf="http://www.w3.org/1999/02/22-rdf-syntax-ns#">
   <cc:Work>
    <dc:type rdf:resource="http://purl.org/dc/dcmitype/StillImage"/>
    <dc:date>2026-05-13T03:22:24.224999</dc:date>
    <dc:format>image/svg+xml</dc:format>
    <dc:creator>
     <cc:Agent>
      <dc:title>Matplotlib v3.10.9, https://matplotlib.org/</dc:title>
     </cc:Agent>
    </dc:creator>
   </cc:Work>
  </rdf:RDF>
 </metadata>
 <defs>
  <style type="text/css">*{stroke-linejoin: round; stroke-linecap: butt}</style>
 </defs>
 <g id="figure_1">
  <g id="patch_1">
   <path d="M 0 612 
L 972 612 
L 972 0 
L 0 0 
z
" style="fill: #ffffff"/>
  </g>
  <g id="axes_1">
   <g id="patch_2">
    <path d="M 66.35 279.084654 
L 473.298812 279.084654 
L 473.298812 48.6 
L 66.35 48.6 
z
" style="fill: #ffffff"/>
   </g>
   <g id="matplotlib.axis_1">
    <g id="xtick_1">
     <g id="line2d_1">
      <path d="M 84.847673 279.084654 
L 84.847673 48.6 
" clip-path="url(#p0966285165)" style="fill: none; stroke: #d9d9d9; stroke-opacity: 0.7; stroke-width: 0.7; stroke-linecap: square"/>
     </g>
     <g id="line2d_2">
      <defs>
       <path id="m5480ea85e5" d="M 0 0 
L 0 3.5 
" style="stroke: #000000; stroke-width: 0.8"/>
      </defs>
      <g>
       <use xlink:href="#m5480ea85e5" x="84.847673" y="279.084654" style="stroke: #000000; stroke-width: 0.8"/>
      </g>
     </g>
     <g id="text_1">
      <!-- d384 -->
      <g transform="translate(72.129705 293.683091) scale(0.1 -0.1)">
       <defs>
        <path id="DejaVuSans-64" d="M 2906 2969 
L 2906 4863 
L 3481 4863 
L 3481 0 
L 2906 0 
L 2906 525 
Q 2725 213 2448 61 
Q 2172 -91 1784 -91 
Q 1150 -91 751 415 
Q 353 922 353 1747 
Q 353 2572 751 3078 
Q 1150 3584 1784 3584 
Q 2172 3584 2448 3432 
Q 2725 3281 2906 2969 
z
M 947 1747 
Q 947 1113 1208 752 
Q 1469 391 1925 391 
Q 2381 391 2643 752 
Q 2906 1113 2906 1747 
Q 2906 2381 2643 2742 
Q 2381 3103 1925 3103 
Q 1469 3103 1208 2742 
Q 947 2381 947 1747 
z
" transform="scale(0.015625)"/>
        <path id="DejaVuSans-33" d="M 2597 2516 
Q 3050 2419 3304 2112 
Q 3559 1806 3559 1356 
Q 3559 666 3084 287 
Q 2609 -91 1734 -91 
Q 1441 -91 1130 -33 
Q 819 25 488 141 
L 488 750 
Q 750 597 1062 519 
Q 1375 441 1716 441 
Q 2309 441 2620 675 
Q 2931 909 2931 1356 
Q 2931 1769 2642 2001 
Q 2353 2234 1838 2234 
L 1294 2234 
L 1294 2753 
L 1863 2753 
Q 2328 2753 2575 2939 
Q 2822 3125 2822 3475 
Q 2822 3834 2567 4026 
Q 2313 4219 1838 4219 
Q 1578 4219 1281 4162 
Q 984 4106 628 3988 
L 628 4550 
Q 988 4650 1302 4700 
Q 1616 4750 1894 4750 
Q 2613 4750 3031 4423 
Q 3450 4097 3450 3541 
Q 3450 3153 3228 2886 
Q 3006 2619 2597 2516 
z
" transform="scale(0.015625)"/>
        <path id="DejaVuSans-38" d="M 2034 2216 
Q 1584 2216 1326 1975 
Q 1069 1734 1069 1313 
Q 1069 891 1326 650 
Q 1584 409 2034 409 
Q 2484 409 2743 651 
Q 3003 894 3003 1313 
Q 3003 1734 2745 1975 
Q 2488 2216 2034 2216 
z
M 1403 2484 
Q 997 2584 770 2862 
Q 544 3141 544 3541 
Q 544 4100 942 4425 
Q 1341 4750 2034 4750 
Q 2731 4750 3128 4425 
Q 3525 4100 3525 3541 
Q 3525 3141 3298 2862 
Q 3072 2584 2669 2484 
Q 3125 2378 3379 2068 
Q 3634 1759 3634 1313 
Q 3634 634 3220 271 
Q 2806 -91 2034 -91 
Q 1263 -91 848 271 
Q 434 634 434 1313 
Q 434 1759 690 2068 
Q 947 2378 1403 2484 
z
M 1172 3481 
Q 1172 3119 1398 2916 
Q 1625 2713 2034 2713 
Q 2441 2713 2670 2916 
Q 2900 3119 2900 3481 
Q 2900 3844 2670 4047 
Q 2441 4250 2034 4250 
Q 1625 4250 1398 4047 
Q 1172 3844 1172 3481 
z
" transform="scale(0.015625)"/>
        <path id="DejaVuSans-34" d="M 2419 4116 
L 825 1625 
L 2419 1625 
L 2419 4116 
z
M 2253 4666 
L 3047 4666 
L 3047 1625 
L 3713 1625 
L 3713 1100 
L 3047 1100 
L 3047 0 
L 2419 0 
L 2419 1100 
L 313 1100 
L 313 1709 
L 2253 4666 
z
" transform="scale(0.015625)"/>
       </defs>
       <use xlink:href="#DejaVuSans-64"/>
       <use xlink:href="#DejaVuSans-33" transform="translate(63.476562 0)"/>
       <use xlink:href="#DejaVuSans-38" transform="translate(127.099609 0)"/>
       <use xlink:href="#DejaVuSans-34" transform="translate(190.722656 0)"/>
      </g>
     </g>
    </g>
    <g id="xtick_2">
     <g id="line2d_3">
      <path d="M 269.824406 279.084654 
L 269.824406 48.6 
" clip-path="url(#p0966285165)" style="fill: none; stroke: #d9d9d9; stroke-opacity: 0.7; stroke-width: 0.7; stroke-linecap: square"/>
     </g>
     <g id="line2d_4">
      <g>
       <use xlink:href="#m5480ea85e5" x="269.824406" y="279.084654" style="stroke: #000000; stroke-width: 0.8"/>
      </g>
     </g>
     <g id="text_2">
      <!-- d768 -->
      <g transform="translate(257.106437 293.683091) scale(0.1 -0.1)">
       <defs>
        <path id="DejaVuSans-37" d="M 525 4666 
L 3525 4666 
L 3525 4397 
L 1831 0 
L 1172 0 
L 2766 4134 
L 525 4134 
L 525 4666 
z
" transform="scale(0.015625)"/>
        <path id="DejaVuSans-36" d="M 2113 2584 
Q 1688 2584 1439 2293 
Q 1191 2003 1191 1497 
Q 1191 994 1439 701 
Q 1688 409 2113 409 
Q 2538 409 2786 701 
Q 3034 994 3034 1497 
Q 3034 2003 2786 2293 
Q 2538 2584 2113 2584 
z
M 3366 4563 
L 3366 3988 
Q 3128 4100 2886 4159 
Q 2644 4219 2406 4219 
Q 1781 4219 1451 3797 
Q 1122 3375 1075 2522 
Q 1259 2794 1537 2939 
Q 1816 3084 2150 3084 
Q 2853 3084 3261 2657 
Q 3669 2231 3669 1497 
Q 3669 778 3244 343 
Q 2819 -91 2113 -91 
Q 1303 -91 875 529 
Q 447 1150 447 2328 
Q 447 3434 972 4092 
Q 1497 4750 2381 4750 
Q 2619 4750 2861 4703 
Q 3103 4656 3366 4563 
z
" transform="scale(0.015625)"/>
       </defs>
       <use xlink:href="#DejaVuSans-64"/>
       <use xlink:href="#DejaVuSans-37" transform="translate(63.476562 0)"/>
       <use xlink:href="#DejaVuSans-36" transform="translate(127.099609 0)"/>
       <use xlink:href="#DejaVuSans-38" transform="translate(190.722656 0)"/>
      </g>
     </g>
    </g>
    <g id="xtick_3">
     <g id="line2d_5">
      <path d="M 454.801139 279.084654 
L 454.801139 48.6 
" clip-path="url(#p0966285165)" style="fill: none; stroke: #d9d9d9; stroke-opacity: 0.7; stroke-width: 0.7; stroke-linecap: square"/>
     </g>
     <g id="line2d_6">
      <g>
       <use xlink:href="#m5480ea85e5" x="454.801139" y="279.084654" style="stroke: #000000; stroke-width: 0.8"/>
      </g>
     </g>
     <g id="text_3">
      <!-- d1536 -->
      <g transform="translate(438.90192 293.683091) scale(0.1 -0.1)">
       <defs>
        <path id="DejaVuSans-31" d="M 794 531 
L 1825 531 
L 1825 4091 
L 703 3866 
L 703 4441 
L 1819 4666 
L 2450 4666 
L 2450 531 
L 3481 531 
L 3481 0 
L 794 0 
L 794 531 
z
" transform="scale(0.015625)"/>
        <path id="DejaVuSans-35" d="M 691 4666 
L 3169 4666 
L 3169 4134 
L 1269 4134 
L 1269 2991 
Q 1406 3038 1543 3061 
Q 1681 3084 1819 3084 
Q 2600 3084 3056 2656 
Q 3513 2228 3513 1497 
Q 3513 744 3044 326 
Q 2575 -91 1722 -91 
Q 1428 -91 1123 -41 
Q 819 9 494 109 
L 494 744 
Q 775 591 1075 516 
Q 1375 441 1709 441 
Q 2250 441 2565 725 
Q 2881 1009 2881 1497 
Q 2881 1984 2565 2268 
Q 2250 2553 1709 2553 
Q 1456 2553 1204 2497 
Q 953 2441 691 2322 
L 691 4666 
z
" transform="scale(0.015625)"/>
       </defs>
       <use xlink:href="#DejaVuSans-64"/>
       <use xlink:href="#DejaVuSans-31" transform="translate(63.476562 0)"/>
       <use xlink:href="#DejaVuSans-35" transform="translate(127.099609 0)"/>
       <use xlink:href="#DejaVuSans-33" transform="translate(190.722656 0)"/>
       <use xlink:href="#DejaVuSans-36" transform="translate(254.345703 0)"/>
      </g>
     </g>
    </g>
    <g id="text_4">
     <!-- Engram dim -->
     <g transform="translate(239.309562 307.361216) scale(0.1 -0.1)">
      <defs>
       <path id="DejaVuSans-45" d="M 628 4666 
L 3578 4666 
L 3578 4134 
L 1259 4134 
L 1259 2753 
L 3481 2753 
L 3481 2222 
L 1259 2222 
L 1259 531 
L 3634 531 
L 3634 0 
L 628 0 
L 628 4666 
z
" transform="scale(0.015625)"/>
       <path id="DejaVuSans-6e" d="M 3513 2113 
L 3513 0 
L 2938 0 
L 2938 2094 
Q 2938 2591 2744 2837 
Q 2550 3084 2163 3084 
Q 1697 3084 1428 2787 
Q 1159 2491 1159 1978 
L 1159 0 
L 581 0 
L 581 3500 
L 1159 3500 
L 1159 2956 
Q 1366 3272 1645 3428 
Q 1925 3584 2291 3584 
Q 2894 3584 3203 3211 
Q 3513 2838 3513 2113 
z
" transform="scale(0.015625)"/>
       <path id="DejaVuSans-67" d="M 2906 1791 
Q 2906 2416 2648 2759 
Q 2391 3103 1925 3103 
Q 1463 3103 1205 2759 
Q 947 2416 947 1791 
Q 947 1169 1205 825 
Q 1463 481 1925 481 
Q 2391 481 2648 825 
Q 2906 1169 2906 1791 
z
M 3481 434 
Q 3481 -459 3084 -895 
Q 2688 -1331 1869 -1331 
Q 1566 -1331 1297 -1286 
Q 1028 -1241 775 -1147 
L 775 -588 
Q 1028 -725 1275 -790 
Q 1522 -856 1778 -856 
Q 2344 -856 2625 -561 
Q 2906 -266 2906 331 
L 2906 616 
Q 2728 306 2450 153 
Q 2172 0 1784 0 
Q 1141 0 747 490 
Q 353 981 353 1791 
Q 353 2603 747 3093 
Q 1141 3584 1784 3584 
Q 2172 3584 2450 3431 
Q 2728 3278 2906 2969 
L 2906 3500 
L 3481 3500 
L 3481 434 
z
" transform="scale(0.015625)"/>
       <path id="DejaVuSans-72" d="M 2631 2963 
Q 2534 3019 2420 3045 
Q 2306 3072 2169 3072 
Q 1681 3072 1420 2755 
Q 1159 2438 1159 1844 
L 1159 0 
L 581 0 
L 581 3500 
L 1159 3500 
L 1159 2956 
Q 1341 3275 1631 3429 
Q 1922 3584 2338 3584 
Q 2397 3584 2469 3576 
Q 2541 3569 2628 3553 
L 2631 2963 
z
" transform="scale(0.015625)"/>
       <path id="DejaVuSans-61" d="M 2194 1759 
Q 1497 1759 1228 1600 
Q 959 1441 959 1056 
Q 959 750 1161 570 
Q 1363 391 1709 391 
Q 2188 391 2477 730 
Q 2766 1069 2766 1631 
L 2766 1759 
L 2194 1759 
z
M 3341 1997 
L 3341 0 
L 2766 0 
L 2766 531 
Q 2569 213 2275 61 
Q 1981 -91 1556 -91 
Q 1019 -91 701 211 
Q 384 513 384 1019 
Q 384 1609 779 1909 
Q 1175 2209 1959 2209 
L 2766 2209 
L 2766 2266 
Q 2766 2663 2505 2880 
Q 2244 3097 1772 3097 
Q 1472 3097 1187 3025 
Q 903 2953 641 2809 
L 641 3341 
Q 956 3463 1253 3523 
Q 1550 3584 1831 3584 
Q 2591 3584 2966 3190 
Q 3341 2797 3341 1997 
z
" transform="scale(0.015625)"/>
       <path id="DejaVuSans-6d" d="M 3328 2828 
Q 3544 3216 3844 3400 
Q 4144 3584 4550 3584 
Q 5097 3584 5394 3201 
Q 5691 2819 5691 2113 
L 5691 0 
L 5113 0 
L 5113 2094 
Q 5113 2597 4934 2840 
Q 4756 3084 4391 3084 
Q 3944 3084 3684 2787 
Q 3425 2491 3425 1978 
L 3425 0 
L 2847 0 
L 2847 2094 
Q 2847 2600 2669 2842 
Q 2491 3084 2119 3084 
Q 1678 3084 1418 2786 
Q 1159 2488 1159 1978 
L 1159 0 
L 581 0 
L 581 3500 
L 1159 3500 
L 1159 2956 
Q 1356 3278 1631 3431 
Q 1906 3584 2284 3584 
Q 2666 3584 2933 3390 
Q 3200 3197 3328 2828 
z
" transform="scale(0.015625)"/>
       <path id="DejaVuSans-20" transform="scale(0.015625)"/>
       <path id="DejaVuSans-69" d="M 603 3500 
L 1178 3500 
L 1178 0 
L 603 0 
L 603 3500 
z
M 603 4863 
L 1178 4863 
L 1178 4134 
L 603 4134 
L 603 4863 
z
" transform="scale(0.015625)"/>
      </defs>
      <use xlink:href="#DejaVuSans-45"/>
      <use xlink:href="#DejaVuSans-6e" transform="translate(63.183594 0)"/>
      <use xlink:href="#DejaVuSans-67" transform="translate(126.5625 0)"/>
      <use xlink:href="#DejaVuSans-72" transform="translate(190.039062 0)"/>
      <use xlink:href="#DejaVuSans-61" transform="translate(231.152344 0)"/>
      <use xlink:href="#DejaVuSans-6d" transform="translate(292.431641 0)"/>
      <use xlink:href="#DejaVuSans-20" transform="translate(389.84375 0)"/>
      <use xlink:href="#DejaVuSans-64" transform="translate(421.630859 0)"/>
      <use xlink:href="#DejaVuSans-69" transform="translate(485.107422 0)"/>
      <use xlink:href="#DejaVuSans-6d" transform="translate(512.890625 0)"/>
     </g>
    </g>
   </g>
   <g id="matplotlib.axis_2">
    <g id="ytick_1">
     <g id="line2d_7">
      <path d="M 66.35 268.108092 
L 473.298812 268.108092 
" clip-path="url(#p0966285165)" style="fill: none; stroke: #d9d9d9; stroke-opacity: 0.7; stroke-width: 0.7; stroke-linecap: square"/>
     </g>
     <g id="line2d_8">
      <defs>
       <path id="ma2405eae1d" d="M 0 0 
L -3.5 0 
" style="stroke: #000000; stroke-width: 0.8"/>
      </defs>
      <g>
       <use xlink:href="#ma2405eae1d" x="66.35" y="268.108092" style="stroke: #000000; stroke-width: 0.8"/>
      </g>
     </g>
     <g id="text_5">
      <!-- 3.5465 -->
      <g transform="translate(24.359375 271.907311) scale(0.1 -0.1)">
       <defs>
        <path id="DejaVuSans-2e" d="M 684 794 
L 1344 794 
L 1344 0 
L 684 0 
L 684 794 
z
" transform="scale(0.015625)"/>
       </defs>
       <use xlink:href="#DejaVuSans-33"/>
       <use xlink:href="#DejaVuSans-2e" transform="translate(63.623047 0)"/>
       <use xlink:href="#DejaVuSans-35" transform="translate(95.410156 0)"/>
       <use xlink:href="#DejaVuSans-34" transform="translate(159.033203 0)"/>
       <use xlink:href="#DejaVuSans-36" transform="translate(222.65625 0)"/>
       <use xlink:href="#DejaVuSans-35" transform="translate(286.279297 0)"/>
      </g>
     </g>
    </g>
    <g id="ytick_2">
     <g id="line2d_9">
      <path d="M 66.35 229.467623 
L 473.298812 229.467623 
" clip-path="url(#p0966285165)" style="fill: none; stroke: #d9d9d9; stroke-opacity: 0.7; stroke-width: 0.7; stroke-linecap: square"/>
     </g>
     <g id="line2d_10">
      <g>
       <use xlink:href="#ma2405eae1d" x="66.35" y="229.467623" style="stroke: #000000; stroke-width: 0.8"/>
      </g>
     </g>
     <g id="text_6">
      <!-- 3.5470 -->
      <g transform="translate(24.359375 233.266842) scale(0.1 -0.1)">
       <defs>
        <path id="DejaVuSans-30" d="M 2034 4250 
Q 1547 4250 1301 3770 
Q 1056 3291 1056 2328 
Q 1056 1369 1301 889 
Q 1547 409 2034 409 
Q 2525 409 2770 889 
Q 3016 1369 3016 2328 
Q 3016 3291 2770 3770 
Q 2525 4250 2034 4250 
z
M 2034 4750 
Q 2819 4750 3233 4129 
Q 3647 3509 3647 2328 
Q 3647 1150 3233 529 
Q 2819 -91 2034 -91 
Q 1250 -91 836 529 
Q 422 1150 422 2328 
Q 422 3509 836 4129 
Q 1250 4750 2034 4750 
z
" transform="scale(0.015625)"/>
       </defs>
       <use xlink:href="#DejaVuSans-33"/>
       <use xlink:href="#DejaVuSans-2e" transform="translate(63.623047 0)"/>
       <use xlink:href="#DejaVuSans-35" transform="translate(95.410156 0)"/>
       <use xlink:href="#DejaVuSans-34" transform="translate(159.033203 0)"/>
       <use xlink:href="#DejaVuSans-37" transform="translate(222.65625 0)"/>
       <use xlink:href="#DejaVuSans-30" transform="translate(286.279297 0)"/>
      </g>
     </g>
    </g>
    <g id="ytick_3">
     <g id="line2d_11">
      <path d="M 66.35 190.827154 
L 473.298812 190.827154 
" clip-path="url(#p0966285165)" style="fill: none; stroke: #d9d9d9; stroke-opacity: 0.7; stroke-width: 0.7; stroke-linecap: square"/>
     </g>
     <g id="line2d_12">
      <g>
       <use xlink:href="#ma2405eae1d" x="66.35" y="190.827154" style="stroke: #000000; stroke-width: 0.8"/>
      </g>
     </g>
     <g id="text_7">
      <!-- 3.5475 -->
      <g transform="translate(24.359375 194.626373) scale(0.1 -0.1)">
       <use xlink:href="#DejaVuSans-33"/>
       <use xlink:href="#DejaVuSans-2e" transform="translate(63.623047 0)"/>
       <use xlink:href="#DejaVuSans-35" transform="translate(95.410156 0)"/>
       <use xlink:href="#DejaVuSans-34" transform="translate(159.033203 0)"/>
       <use xlink:href="#DejaVuSans-37" transform="translate(222.65625 0)"/>
       <use xlink:href="#DejaVuSans-35" transform="translate(286.279297 0)"/>
      </g>
     </g>
    </g>
    <g id="ytick_4">
     <g id="line2d_13">
      <path d="M 66.35 152.186686 
L 473.298812 152.186686 
" clip-path="url(#p0966285165)" style="fill: none; stroke: #d9d9d9; stroke-opacity: 0.7; stroke-width: 0.7; stroke-linecap: square"/>
     </g>
     <g id="line2d_14">
      <g>
       <use xlink:href="#ma2405eae1d" x="66.35" y="152.186686" style="stroke: #000000; stroke-width: 0.8"/>
      </g>
     </g>
     <g id="text_8">
      <!-- 3.5480 -->
      <g transform="translate(24.359375 155.985904) scale(0.1 -0.1)">
       <use xlink:href="#DejaVuSans-33"/>
       <use xlink:href="#DejaVuSans-2e" transform="translate(63.623047 0)"/>
       <use xlink:href="#DejaVuSans-35" transform="translate(95.410156 0)"/>
       <use xlink:href="#DejaVuSans-34" transform="translate(159.033203 0)"/>
       <use xlink:href="#DejaVuSans-38" transform="translate(222.65625 0)"/>
       <use xlink:href="#DejaVuSans-30" transform="translate(286.279297 0)"/>
      </g>
     </g>
    </g>
    <g id="ytick_5">
     <g id="line2d_15">
      <path d="M 66.35 113.546217 
L 473.298812 113.546217 
" clip-path="url(#p0966285165)" style="fill: none; stroke: #d9d9d9; stroke-opacity: 0.7; stroke-width: 0.7; stroke-linecap: square"/>
     </g>
     <g id="line2d_16">
      <g>
       <use xlink:href="#ma2405eae1d" x="66.35" y="113.546217" style="stroke: #000000; stroke-width: 0.8"/>
      </g>
     </g>
     <g id="text_9">
      <!-- 3.5485 -->
      <g transform="translate(24.359375 117.345436) scale(0.1 -0.1)">
       <use xlink:href="#DejaVuSans-33"/>
       <use xlink:href="#DejaVuSans-2e" transform="translate(63.623047 0)"/>
       <use xlink:href="#DejaVuSans-35" transform="translate(95.410156 0)"/>
       <use xlink:href="#DejaVuSans-34" transform="translate(159.033203 0)"/>
       <use xlink:href="#DejaVuSans-38" transform="translate(222.65625 0)"/>
       <use xlink:href="#DejaVuSans-35" transform="translate(286.279297 0)"/>
      </g>
     </g>
    </g>
    <g id="ytick_6">
     <g id="line2d_17">
      <path d="M 66.35 74.905748 
L 473.298812 74.905748 
" clip-path="url(#p0966285165)" style="fill: none; stroke: #d9d9d9; stroke-opacity: 0.7; stroke-width: 0.7; stroke-linecap: square"/>
     </g>
     <g id="line2d_18">
      <g>
       <use xlink:href="#ma2405eae1d" x="66.35" y="74.905748" style="stroke: #000000; stroke-width: 0.8"/>
      </g>
     </g>
     <g id="text_10">
      <!-- 3.5490 -->
      <g transform="translate(24.359375 78.704967) scale(0.1 -0.1)">
       <defs>
        <path id="DejaVuSans-39" d="M 703 97 
L 703 672 
Q 941 559 1184 500 
Q 1428 441 1663 441 
Q 2288 441 2617 861 
Q 2947 1281 2994 2138 
Q 2813 1869 2534 1725 
Q 2256 1581 1919 1581 
Q 1219 1581 811 2004 
Q 403 2428 403 3163 
Q 403 3881 828 4315 
Q 1253 4750 1959 4750 
Q 2769 4750 3195 4129 
Q 3622 3509 3622 2328 
Q 3622 1225 3098 567 
Q 2575 -91 1691 -91 
Q 1453 -91 1209 -44 
Q 966 3 703 97 
z
M 1959 2075 
Q 2384 2075 2632 2365 
Q 2881 2656 2881 3163 
Q 2881 3666 2632 3958 
Q 2384 4250 1959 4250 
Q 1534 4250 1286 3958 
Q 1038 3666 1038 3163 
Q 1038 2656 1286 2365 
Q 1534 2075 1959 2075 
z
" transform="scale(0.015625)"/>
       </defs>
       <use xlink:href="#DejaVuSans-33"/>
       <use xlink:href="#DejaVuSans-2e" transform="translate(63.623047 0)"/>
       <use xlink:href="#DejaVuSans-35" transform="translate(95.410156 0)"/>
       <use xlink:href="#DejaVuSans-34" transform="translate(159.033203 0)"/>
       <use xlink:href="#DejaVuSans-39" transform="translate(222.65625 0)"/>
       <use xlink:href="#DejaVuSans-30" transform="translate(286.279297 0)"/>
      </g>
     </g>
    </g>
    <g id="text_11">
     <!-- loss -->
     <g transform="translate(18.279688 173.500139) rotate(-90) scale(0.1 -0.1)">
      <defs>
       <path id="DejaVuSans-6c" d="M 603 4863 
L 1178 4863 
L 1178 0 
L 603 0 
L 603 4863 
z
" transform="scale(0.015625)"/>
       <path id="DejaVuSans-6f" d="M 1959 3097 
Q 1497 3097 1228 2736 
Q 959 2375 959 1747 
Q 959 1119 1226 758 
Q 1494 397 1959 397 
Q 2419 397 2687 759 
Q 2956 1122 2956 1747 
Q 2956 2369 2687 2733 
Q 2419 3097 1959 3097 
z
M 1959 3584 
Q 2709 3584 3137 3096 
Q 3566 2609 3566 1747 
Q 3566 888 3137 398 
Q 2709 -91 1959 -91 
Q 1206 -91 779 398 
Q 353 888 353 1747 
Q 353 2609 779 3096 
Q 1206 3584 1959 3584 
z
" transform="scale(0.015625)"/>
       <path id="DejaVuSans-73" d="M 2834 3397 
L 2834 2853 
Q 2591 2978 2328 3040 
Q 2066 3103 1784 3103 
Q 1356 3103 1142 2972 
Q 928 2841 928 2578 
Q 928 2378 1081 2264 
Q 1234 2150 1697 2047 
L 1894 2003 
Q 2506 1872 2764 1633 
Q 3022 1394 3022 966 
Q 3022 478 2636 193 
Q 2250 -91 1575 -91 
Q 1294 -91 989 -36 
Q 684 19 347 128 
L 347 722 
Q 666 556 975 473 
Q 1284 391 1588 391 
Q 1994 391 2212 530 
Q 2431 669 2431 922 
Q 2431 1156 2273 1281 
Q 2116 1406 1581 1522 
L 1381 1569 
Q 847 1681 609 1914 
Q 372 2147 372 2553 
Q 372 3047 722 3315 
Q 1072 3584 1716 3584 
Q 2034 3584 2315 3537 
Q 2597 3491 2834 3397 
z
" transform="scale(0.015625)"/>
      </defs>
      <use xlink:href="#DejaVuSans-6c"/>
      <use xlink:href="#DejaVuSans-6f" transform="translate(27.783203 0)"/>
      <use xlink:href="#DejaVuSans-73" transform="translate(88.964844 0)"/>
      <use xlink:href="#DejaVuSans-73" transform="translate(141.064453 0)"/>
     </g>
    </g>
   </g>
   <g id="line2d_19">
    <path d="M 84.847673 59.076575 
L 269.824406 268.608079 
L 454.801139 258.511063 
" clip-path="url(#p0966285165)" style="fill: none; stroke: #333333; stroke-width: 2; stroke-linecap: square"/>
   </g>
   <g id="patch_3">
    <path d="M 66.35 279.084654 
L 66.35 48.6 
" style="fill: none; stroke: #000000; stroke-width: 0.8; stroke-linejoin: miter; stroke-linecap: square"/>
   </g>
   <g id="patch_4">
    <path d="M 473.298812 279.084654 
L 473.298812 48.6 
" style="fill: none; stroke: #000000; stroke-width: 0.8; stroke-linejoin: miter; stroke-linecap: square"/>
   </g>
   <g id="patch_5">
    <path d="M 66.35 279.084654 
L 473.298812 279.084654 
" style="fill: none; stroke: #000000; stroke-width: 0.8; stroke-linejoin: miter; stroke-linecap: square"/>
   </g>
   <g id="patch_6">
    <path d="M 66.35 48.6 
L 473.298812 48.6 
" style="fill: none; stroke: #000000; stroke-width: 0.8; stroke-linejoin: miter; stroke-linecap: square"/>
   </g>
   <g id="PathCollection_1">
    <defs>
     <path id="C0_0_cd766e5f89" d="M 0 4.1833 
C 1.109424 4.1833 2.173559 3.742521 2.95804 2.95804 
C 3.742521 2.173559 4.1833 1.109424 4.1833 -0 
C 4.1833 -1.109424 3.742521 -2.173559 2.95804 -2.95804 
C 2.173559 -3.742521 1.109424 -4.1833 0 -4.1833 
C -1.109424 -4.1833 -2.173559 -3.742521 -2.95804 -2.95804 
C -3.742521 -2.173559 -4.1833 -1.109424 -4.1833 0 
C -4.1833 1.109424 -3.742521 2.173559 -2.95804 2.95804 
C -2.173559 3.742521 -1.109424 4.1833 0 4.1833 
z
"/>
    </defs>
    <g clip-path="url(#p0966285165)">
     <use xlink:href="#C0_0_cd766e5f89" x="84.847673" y="59.076575" style="fill: #3b6fb6; stroke: #3b6fb6"/>
    </g>
    <g clip-path="url(#p0966285165)">
     <use xlink:href="#C0_0_cd766e5f89" x="269.824406" y="268.608079" style="fill: #2e8b57; stroke: #2e8b57"/>
    </g>
    <g clip-path="url(#p0966285165)">
     <use xlink:href="#C0_0_cd766e5f89" x="454.801139" y="258.511063" style="fill: #7a4eb3; stroke: #7a4eb3"/>
    </g>
   </g>
   <g id="text_12">
    <!-- 3.5492 -->
    <g transform="translate(89.847673 55.076575) scale(0.09 -0.09)">
     <defs>
      <path id="DejaVuSans-32" d="M 1228 531 
L 3431 531 
L 3431 0 
L 469 0 
L 469 531 
Q 828 903 1448 1529 
Q 2069 2156 2228 2338 
Q 2531 2678 2651 2914 
Q 2772 3150 2772 3378 
Q 2772 3750 2511 3984 
Q 2250 4219 1831 4219 
Q 1534 4219 1204 4116 
Q 875 4013 500 3803 
L 500 4441 
Q 881 4594 1212 4672 
Q 1544 4750 1819 4750 
Q 2544 4750 2975 4387 
Q 3406 4025 3406 3419 
Q 3406 3131 3298 2873 
Q 3191 2616 2906 2266 
Q 2828 2175 2409 1742 
Q 1991 1309 1228 531 
z
" transform="scale(0.015625)"/>
     </defs>
     <use xlink:href="#DejaVuSans-33"/>
     <use xlink:href="#DejaVuSans-2e" transform="translate(63.623047 0)"/>
     <use xlink:href="#DejaVuSans-35" transform="translate(95.410156 0)"/>
     <use xlink:href="#DejaVuSans-34" transform="translate(159.033203 0)"/>
     <use xlink:href="#DejaVuSans-39" transform="translate(222.65625 0)"/>
     <use xlink:href="#DejaVuSans-32" transform="translate(286.279297 0)"/>
    </g>
   </g>
   <g id="text_13">
    <!-- 3.5465 -->
    <g transform="translate(274.824406 264.608079) scale(0.09 -0.09)">
     <use xlink:href="#DejaVuSans-33"/>
     <use xlink:href="#DejaVuSans-2e" transform="translate(63.623047 0)"/>
     <use xlink:href="#DejaVuSans-35" transform="translate(95.410156 0)"/>
     <use xlink:href="#DejaVuSans-34" transform="translate(159.033203 0)"/>
     <use xlink:href="#DejaVuSans-36" transform="translate(222.65625 0)"/>
     <use xlink:href="#DejaVuSans-35" transform="translate(286.279297 0)"/>
    </g>
   </g>
   <g id="text_14">
    <!-- 3.5466 -->
    <g transform="translate(459.801139 254.511063) scale(0.09 -0.09)">
     <use xlink:href="#DejaVuSans-33"/>
     <use xlink:href="#DejaVuSans-2e" transform="translate(63.623047 0)"/>
     <use xlink:href="#DejaVuSans-35" transform="translate(95.410156 0)"/>
     <use xlink:href="#DejaVuSans-34" transform="translate(159.033203 0)"/>
     <use xlink:href="#DejaVuSans-36" transform="translate(222.65625 0)"/>
     <use xlink:href="#DejaVuSans-36" transform="translate(286.279297 0)"/>
    </g>
   </g>
   <g id="text_15">
    <!-- Analysis-Slice Loss -->
    <g transform="translate(213.738469 42.6) scale(0.12 -0.12)">
     <defs>
      <path id="DejaVuSans-41" d="M 2188 4044 
L 1331 1722 
L 3047 1722 
L 2188 4044 
z
M 1831 4666 
L 2547 4666 
L 4325 0 
L 3669 0 
L 3244 1197 
L 1141 1197 
L 716 0 
L 50 0 
L 1831 4666 
z
" transform="scale(0.015625)"/>
      <path id="DejaVuSans-79" d="M 2059 -325 
Q 1816 -950 1584 -1140 
Q 1353 -1331 966 -1331 
L 506 -1331 
L 506 -850 
L 844 -850 
Q 1081 -850 1212 -737 
Q 1344 -625 1503 -206 
L 1606 56 
L 191 3500 
L 800 3500 
L 1894 763 
L 2988 3500 
L 3597 3500 
L 2059 -325 
z
" transform="scale(0.015625)"/>
      <path id="DejaVuSans-2d" d="M 313 2009 
L 1997 2009 
L 1997 1497 
L 313 1497 
L 313 2009 
z
" transform="scale(0.015625)"/>
      <path id="DejaVuSans-53" d="M 3425 4513 
L 3425 3897 
Q 3066 4069 2747 4153 
Q 2428 4238 2131 4238 
Q 1616 4238 1336 4038 
Q 1056 3838 1056 3469 
Q 1056 3159 1242 3001 
Q 1428 2844 1947 2747 
L 2328 2669 
Q 3034 2534 3370 2195 
Q 3706 1856 3706 1288 
Q 3706 609 3251 259 
Q 2797 -91 1919 -91 
Q 1588 -91 1214 -16 
Q 841 59 441 206 
L 441 856 
Q 825 641 1194 531 
Q 1563 422 1919 422 
Q 2459 422 2753 634 
Q 3047 847 3047 1241 
Q 3047 1584 2836 1778 
Q 2625 1972 2144 2069 
L 1759 2144 
Q 1053 2284 737 2584 
Q 422 2884 422 3419 
Q 422 4038 858 4394 
Q 1294 4750 2059 4750 
Q 2388 4750 2728 4690 
Q 3069 4631 3425 4513 
z
" transform="scale(0.015625)"/>
      <path id="DejaVuSans-63" d="M 3122 3366 
L 3122 2828 
Q 2878 2963 2633 3030 
Q 2388 3097 2138 3097 
Q 1578 3097 1268 2742 
Q 959 2388 959 1747 
Q 959 1106 1268 751 
Q 1578 397 2138 397 
Q 2388 397 2633 464 
Q 2878 531 3122 666 
L 3122 134 
Q 2881 22 2623 -34 
Q 2366 -91 2075 -91 
Q 1284 -91 818 406 
Q 353 903 353 1747 
Q 353 2603 823 3093 
Q 1294 3584 2113 3584 
Q 2378 3584 2631 3529 
Q 2884 3475 3122 3366 
z
" transform="scale(0.015625)"/>
      <path id="DejaVuSans-65" d="M 3597 1894 
L 3597 1613 
L 953 1613 
Q 991 1019 1311 708 
Q 1631 397 2203 397 
Q 2534 397 2845 478 
Q 3156 559 3463 722 
L 3463 178 
Q 3153 47 2828 -22 
Q 2503 -91 2169 -91 
Q 1331 -91 842 396 
Q 353 884 353 1716 
Q 353 2575 817 3079 
Q 1281 3584 2069 3584 
Q 2775 3584 3186 3129 
Q 3597 2675 3597 1894 
z
M 3022 2063 
Q 3016 2534 2758 2815 
Q 2500 3097 2075 3097 
Q 1594 3097 1305 2825 
Q 1016 2553 972 2059 
L 3022 2063 
z
" transform="scale(0.015625)"/>
      <path id="DejaVuSans-4c" d="M 628 4666 
L 1259 4666 
L 1259 531 
L 3531 531 
L 3531 0 
L 628 0 
L 628 4666 
z
" transform="scale(0.015625)"/>
     </defs>
     <use xlink:href="#DejaVuSans-41"/>
     <use xlink:href="#DejaVuSans-6e" transform="translate(68.408203 0)"/>
     <use xlink:href="#DejaVuSans-61" transform="translate(131.787109 0)"/>
     <use xlink:href="#DejaVuSans-6c" transform="translate(193.066406 0)"/>
     <use xlink:href="#DejaVuSans-79" transform="translate(220.849609 0)"/>
     <use xlink:href="#DejaVuSans-73" transform="translate(280.029297 0)"/>
     <use xlink:href="#DejaVuSans-69" transform="translate(332.128906 0)"/>
     <use xlink:href="#DejaVuSans-73" transform="translate(359.912109 0)"/>
     <use xlink:href="#DejaVuSans-2d" transform="translate(412.011719 0)"/>
     <use xlink:href="#DejaVuSans-53" transform="translate(448.095703 0)"/>
     <use xlink:href="#DejaVuSans-6c" transform="translate(511.572266 0)"/>
     <use xlink:href="#DejaVuSans-69" transform="translate(539.355469 0)"/>
     <use xlink:href="#DejaVuSans-63" transform="translate(567.138672 0)"/>
     <use xlink:href="#DejaVuSans-65" transform="translate(622.119141 0)"/>
     <use xlink:href="#DejaVuSans-20" transform="translate(683.642578 0)"/>
     <use xlink:href="#DejaVuSans-4c" transform="translate(715.429688 0)"/>
     <use xlink:href="#DejaVuSans-6f" transform="translate(769.392578 0)"/>
     <use xlink:href="#DejaVuSans-73" transform="translate(830.574219 0)"/>
     <use xlink:href="#DejaVuSans-73" transform="translate(882.673828 0)"/>
    </g>
   </g>
  </g>
  <g id="axes_2">
   <g id="patch_7">
    <path d="M 541.509763 279.084654 
L 948.458575 279.084654 
L 948.458575 48.6 
L 541.509763 48.6 
z
" style="fill: #ffffff"/>
   </g>
   <g id="patch_8">
    <path d="M 560.007436 279.084654 
L 592.650389 279.084654 
L 592.650389 143.97771 
L 560.007436 143.97771 
z
" clip-path="url(#pa0053fe880)" style="fill: #3b6fb6"/>
   </g>
   <g id="patch_9">
    <path d="M 696.019739 279.084654 
L 728.662692 279.084654 
L 728.662692 142.867655 
L 696.019739 142.867655 
z
" clip-path="url(#pa0053fe880)" style="fill: #3b6fb6"/>
   </g>
   <g id="patch_10">
    <path d="M 832.032043 279.084654 
L 864.674996 279.084654 
L 864.674996 147.025379 
L 832.032043 147.025379 
z
" clip-path="url(#pa0053fe880)" style="fill: #3b6fb6"/>
   </g>
   <g id="patch_11">
    <path d="M 592.650389 279.084654 
L 625.293342 279.084654 
L 625.293342 158.504527 
L 592.650389 158.504527 
z
" clip-path="url(#pa0053fe880)" style="fill: #2e8b57"/>
   </g>
   <g id="patch_12">
    <path d="M 728.662692 279.084654 
L 761.305645 279.084654 
L 761.305645 155.016624 
L 728.662692 155.016624 
z
" clip-path="url(#pa0053fe880)" style="fill: #2e8b57"/>
   </g>
   <g id="patch_13">
    <path d="M 864.674996 279.084654 
L 897.317949 279.084654 
L 897.317949 159.832163 
L 864.674996 159.832163 
z
" clip-path="url(#pa0053fe880)" style="fill: #2e8b57"/>
   </g>
   <g id="patch_14">
    <path d="M 625.293342 279.084654 
L 657.936294 279.084654 
L 657.936294 226.89361 
L 625.293342 226.89361 
z
" clip-path="url(#pa0053fe880)" style="fill: #7a4eb3"/>
   </g>
   <g id="patch_15">
    <path d="M 761.305645 279.084654 
L 793.948598 279.084654 
L 793.948598 215.134799 
L 761.305645 215.134799 
z
" clip-path="url(#pa0053fe880)" style="fill: #7a4eb3"/>
   </g>
   <g id="patch_16">
    <path d="M 897.317949 279.084654 
L 929.960902 279.084654 
L 929.960902 219.33136 
L 897.317949 219.33136 
z
" clip-path="url(#pa0053fe880)" style="fill: #7a4eb3"/>
   </g>
   <g id="matplotlib.axis_3">
    <g id="xtick_4">
     <g id="line2d_20">
      <g>
       <use xlink:href="#m5480ea85e5" x="608.971865" y="279.084654" style="stroke: #000000; stroke-width: 0.8"/>
      </g>
     </g>
     <g id="text_16">
      <!-- d384 -->
      <g transform="translate(596.253896 293.683091) scale(0.1 -0.1)">
       <use xlink:href="#DejaVuSans-64"/>
       <use xlink:href="#DejaVuSans-33" transform="translate(63.476562 0)"/>
       <use xlink:href="#DejaVuSans-38" transform="translate(127.099609 0)"/>
       <use xlink:href="#DejaVuSans-34" transform="translate(190.722656 0)"/>
      </g>
     </g>
    </g>
    <g id="xtick_5">
     <g id="line2d_21">
      <g>
       <use xlink:href="#m5480ea85e5" x="744.984169" y="279.084654" style="stroke: #000000; stroke-width: 0.8"/>
      </g>
     </g>
     <g id="text_17">
      <!-- d768 -->
      <g transform="translate(732.2662 293.683091) scale(0.1 -0.1)">
       <use xlink:href="#DejaVuSans-64"/>
       <use xlink:href="#DejaVuSans-37" transform="translate(63.476562 0)"/>
       <use xlink:href="#DejaVuSans-36" transform="translate(127.099609 0)"/>
       <use xlink:href="#DejaVuSans-38" transform="translate(190.722656 0)"/>
      </g>
     </g>
    </g>
    <g id="xtick_6">
     <g id="line2d_22">
      <g>
       <use xlink:href="#m5480ea85e5" x="880.996472" y="279.084654" style="stroke: #000000; stroke-width: 0.8"/>
      </g>
     </g>
     <g id="text_18">
      <!-- d1536 -->
      <g transform="translate(865.097253 293.683091) scale(0.1 -0.1)">
       <use xlink:href="#DejaVuSans-64"/>
       <use xlink:href="#DejaVuSans-31" transform="translate(63.476562 0)"/>
       <use xlink:href="#DejaVuSans-35" transform="translate(127.099609 0)"/>
       <use xlink:href="#DejaVuSans-33" transform="translate(190.722656 0)"/>
       <use xlink:href="#DejaVuSans-36" transform="translate(254.345703 0)"/>
      </g>
     </g>
    </g>
   </g>
   <g id="matplotlib.axis_4">
    <g id="ytick_7">
     <g id="line2d_23">
      <path d="M 541.509763 279.084654 
L 948.458575 279.084654 
" clip-path="url(#pa0053fe880)" style="fill: none; stroke: #d9d9d9; stroke-opacity: 0.7; stroke-width: 0.7; stroke-linecap: square"/>
     </g>
     <g id="line2d_24">
      <g>
       <use xlink:href="#ma2405eae1d" x="541.509763" y="279.084654" style="stroke: #000000; stroke-width: 0.8"/>
      </g>
     </g>
     <g id="text_19">
      <!-- 0.0 -->
      <g transform="translate(518.606638 282.883873) scale(0.1 -0.1)">
       <use xlink:href="#DejaVuSans-30"/>
       <use xlink:href="#DejaVuSans-2e" transform="translate(63.623047 0)"/>
       <use xlink:href="#DejaVuSans-30" transform="translate(95.410156 0)"/>
      </g>
     </g>
    </g>
    <g id="ytick_8">
     <g id="line2d_25">
      <path d="M 541.509763 232.987723 
L 948.458575 232.987723 
" clip-path="url(#pa0053fe880)" style="fill: none; stroke: #d9d9d9; stroke-opacity: 0.7; stroke-width: 0.7; stroke-linecap: square"/>
     </g>
     <g id="line2d_26">
      <g>
       <use xlink:href="#ma2405eae1d" x="541.509763" y="232.987723" style="stroke: #000000; stroke-width: 0.8"/>
      </g>
     </g>
     <g id="text_20">
      <!-- 0.2 -->
      <g transform="translate(518.606638 236.786942) scale(0.1 -0.1)">
       <use xlink:href="#DejaVuSans-30"/>
       <use xlink:href="#DejaVuSans-2e" transform="translate(63.623047 0)"/>
       <use xlink:href="#DejaVuSans-32" transform="translate(95.410156 0)"/>
      </g>
     </g>
    </g>
    <g id="ytick_9">
     <g id="line2d_27">
      <path d="M 541.509763 186.890792 
L 948.458575 186.890792 
" clip-path="url(#pa0053fe880)" style="fill: none; stroke: #d9d9d9; stroke-opacity: 0.7; stroke-width: 0.7; stroke-linecap: square"/>
     </g>
     <g id="line2d_28">
      <g>
       <use xlink:href="#ma2405eae1d" x="541.509763" y="186.890792" style="stroke: #000000; stroke-width: 0.8"/>
      </g>
     </g>
     <g id="text_21">
      <!-- 0.4 -->
      <g transform="translate(518.606638 190.690011) scale(0.1 -0.1)">
       <use xlink:href="#DejaVuSans-30"/>
       <use xlink:href="#DejaVuSans-2e" transform="translate(63.623047 0)"/>
       <use xlink:href="#DejaVuSans-34" transform="translate(95.410156 0)"/>
      </g>
     </g>
    </g>
    <g id="ytick_10">
     <g id="line2d_29">
      <path d="M 541.509763 140.793862 
L 948.458575 140.793862 
" clip-path="url(#pa0053fe880)" style="fill: none; stroke: #d9d9d9; stroke-opacity: 0.7; stroke-width: 0.7; stroke-linecap: square"/>
     </g>
     <g id="line2d_30">
      <g>
       <use xlink:href="#ma2405eae1d" x="541.509763" y="140.793862" style="stroke: #000000; stroke-width: 0.8"/>
      </g>
     </g>
     <g id="text_22">
      <!-- 0.6 -->
      <g transform="translate(518.606638 144.59308) scale(0.1 -0.1)">
       <use xlink:href="#DejaVuSans-30"/>
       <use xlink:href="#DejaVuSans-2e" transform="translate(63.623047 0)"/>
       <use xlink:href="#DejaVuSans-36" transform="translate(95.410156 0)"/>
      </g>
     </g>
    </g>
    <g id="ytick_11">
     <g id="line2d_31">
      <path d="M 541.509763 94.696931 
L 948.458575 94.696931 
" clip-path="url(#pa0053fe880)" style="fill: none; stroke: #d9d9d9; stroke-opacity: 0.7; stroke-width: 0.7; stroke-linecap: square"/>
     </g>
     <g id="line2d_32">
      <g>
       <use xlink:href="#ma2405eae1d" x="541.509763" y="94.696931" style="stroke: #000000; stroke-width: 0.8"/>
      </g>
     </g>
     <g id="text_23">
      <!-- 0.8 -->
      <g transform="translate(518.606638 98.49615) scale(0.1 -0.1)">
       <use xlink:href="#DejaVuSans-30"/>
       <use xlink:href="#DejaVuSans-2e" transform="translate(63.623047 0)"/>
       <use xlink:href="#DejaVuSans-38" transform="translate(95.410156 0)"/>
      </g>
     </g>
    </g>
    <g id="ytick_12">
     <g id="line2d_33">
      <path d="M 541.509763 48.6 
L 948.458575 48.6 
" clip-path="url(#pa0053fe880)" style="fill: none; stroke: #d9d9d9; stroke-opacity: 0.7; stroke-width: 0.7; stroke-linecap: square"/>
     </g>
     <g id="line2d_34">
      <g>
       <use xlink:href="#ma2405eae1d" x="541.509763" y="48.6" style="stroke: #000000; stroke-width: 0.8"/>
      </g>
     </g>
     <g id="text_24">
      <!-- 1.0 -->
      <g transform="translate(518.606638 52.399219) scale(0.1 -0.1)">
       <use xlink:href="#DejaVuSans-31"/>
       <use xlink:href="#DejaVuSans-2e" transform="translate(63.623047 0)"/>
       <use xlink:href="#DejaVuSans-30" transform="translate(95.410156 0)"/>
      </g>
     </g>
    </g>
    <g id="text_25">
     <!-- fraction / mean -->
     <g transform="translate(512.52695 202.090764) rotate(-90) scale(0.1 -0.1)">
      <defs>
       <path id="DejaVuSans-66" d="M 2375 4863 
L 2375 4384 
L 1825 4384 
Q 1516 4384 1395 4259 
Q 1275 4134 1275 3809 
L 1275 3500 
L 2222 3500 
L 2222 3053 
L 1275 3053 
L 1275 0 
L 697 0 
L 697 3053 
L 147 3053 
L 147 3500 
L 697 3500 
L 697 3744 
Q 697 4328 969 4595 
Q 1241 4863 1831 4863 
L 2375 4863 
z
" transform="scale(0.015625)"/>
       <path id="DejaVuSans-74" d="M 1172 4494 
L 1172 3500 
L 2356 3500 
L 2356 3053 
L 1172 3053 
L 1172 1153 
Q 1172 725 1289 603 
Q 1406 481 1766 481 
L 2356 481 
L 2356 0 
L 1766 0 
Q 1100 0 847 248 
Q 594 497 594 1153 
L 594 3053 
L 172 3053 
L 172 3500 
L 594 3500 
L 594 4494 
L 1172 4494 
z
" transform="scale(0.015625)"/>
       <path id="DejaVuSans-2f" d="M 1625 4666 
L 2156 4666 
L 531 -594 
L 0 -594 
L 1625 4666 
z
" transform="scale(0.015625)"/>
      </defs>
      <use xlink:href="#DejaVuSans-66"/>
      <use xlink:href="#DejaVuSans-72" transform="translate(35.205078 0)"/>
      <use xlink:href="#DejaVuSans-61" transform="translate(76.318359 0)"/>
      <use xlink:href="#DejaVuSans-63" transform="translate(137.597656 0)"/>
      <use xlink:href="#DejaVuSans-74" transform="translate(192.578125 0)"/>
      <use xlink:href="#DejaVuSans-69" transform="translate(231.787109 0)"/>
      <use xlink:href="#DejaVuSans-6f" transform="translate(259.570312 0)"/>
      <use xlink:href="#DejaVuSans-6e" transform="translate(320.751953 0)"/>
      <use xlink:href="#DejaVuSans-20" transform="translate(384.130859 0)"/>
      <use xlink:href="#DejaVuSans-2f" transform="translate(415.917969 0)"/>
      <use xlink:href="#DejaVuSans-20" transform="translate(449.609375 0)"/>
      <use xlink:href="#DejaVuSans-6d" transform="translate(481.396484 0)"/>
      <use xlink:href="#DejaVuSans-65" transform="translate(578.808594 0)"/>
      <use xlink:href="#DejaVuSans-61" transform="translate(640.332031 0)"/>
      <use xlink:href="#DejaVuSans-6e" transform="translate(701.611328 0)"/>
     </g>
    </g>
   </g>
   <g id="patch_17">
    <path d="M 541.509763 279.084654 
L 541.509763 48.6 
" style="fill: none; stroke: #000000; stroke-width: 0.8; stroke-linejoin: miter; stroke-linecap: square"/>
   </g>
   <g id="patch_18">
    <path d="M 948.458575 279.084654 
L 948.458575 48.6 
" style="fill: none; stroke: #000000; stroke-width: 0.8; stroke-linejoin: miter; stroke-linecap: square"/>
   </g>
   <g id="patch_19">
    <path d="M 541.509763 279.084654 
L 948.458575 279.084654 
" style="fill: none; stroke: #000000; stroke-width: 0.8; stroke-linejoin: miter; stroke-linecap: square"/>
   </g>
   <g id="patch_20">
    <path d="M 541.509763 48.6 
L 948.458575 48.6 
" style="fill: none; stroke: #000000; stroke-width: 0.8; stroke-linejoin: miter; stroke-linecap: square"/>
   </g>
   <g id="text_26">
    <!-- Gate Activity -->
    <g transform="translate(706.268231 42.6) scale(0.12 -0.12)">
     <defs>
      <path id="DejaVuSans-47" d="M 3809 666 
L 3809 1919 
L 2778 1919 
L 2778 2438 
L 4434 2438 
L 4434 434 
Q 4069 175 3628 42 
Q 3188 -91 2688 -91 
Q 1594 -91 976 548 
Q 359 1188 359 2328 
Q 359 3472 976 4111 
Q 1594 4750 2688 4750 
Q 3144 4750 3555 4637 
Q 3966 4525 4313 4306 
L 4313 3634 
Q 3963 3931 3569 4081 
Q 3175 4231 2741 4231 
Q 1884 4231 1454 3753 
Q 1025 3275 1025 2328 
Q 1025 1384 1454 906 
Q 1884 428 2741 428 
Q 3075 428 3337 486 
Q 3600 544 3809 666 
z
" transform="scale(0.015625)"/>
      <path id="DejaVuSans-76" d="M 191 3500 
L 800 3500 
L 1894 563 
L 2988 3500 
L 3597 3500 
L 2284 0 
L 1503 0 
L 191 3500 
z
" transform="scale(0.015625)"/>
     </defs>
     <use xlink:href="#DejaVuSans-47"/>
     <use xlink:href="#DejaVuSans-61" transform="translate(77.490234 0)"/>
     <use xlink:href="#DejaVuSans-74" transform="translate(138.769531 0)"/>
     <use xlink:href="#DejaVuSans-65" transform="translate(177.978516 0)"/>
     <use xlink:href="#DejaVuSans-20" transform="translate(239.501953 0)"/>
     <use xlink:href="#DejaVuSans-41" transform="translate(271.289062 0)"/>
     <use xlink:href="#DejaVuSans-63" transform="translate(337.947266 0)"/>
     <use xlink:href="#DejaVuSans-74" transform="translate(392.927734 0)"/>
     <use xlink:href="#DejaVuSans-69" transform="translate(432.136719 0)"/>
     <use xlink:href="#DejaVuSans-76" transform="translate(459.919922 0)"/>
     <use xlink:href="#DejaVuSans-69" transform="translate(519.099609 0)"/>
     <use xlink:href="#DejaVuSans-74" transform="translate(546.882812 0)"/>
     <use xlink:href="#DejaVuSans-79" transform="translate(586.091797 0)"/>
    </g>
   </g>
   <g id="legend_1">
    <g id="patch_21">
     <path d="M 887.577794 63.538594 
L 905.577794 63.538594 
L 905.577794 57.238594 
L 887.577794 57.238594 
z
" style="fill: #3b6fb6"/>
    </g>
    <g id="text_27">
     <!-- mean -->
     <g transform="translate(912.777794 63.538594) scale(0.09 -0.09)">
      <use xlink:href="#DejaVuSans-6d"/>
      <use xlink:href="#DejaVuSans-65" transform="translate(97.412109 0)"/>
      <use xlink:href="#DejaVuSans-61" transform="translate(158.935547 0)"/>
      <use xlink:href="#DejaVuSans-6e" transform="translate(220.214844 0)"/>
     </g>
    </g>
    <g id="patch_22">
     <path d="M 887.577794 76.748906 
L 905.577794 76.748906 
L 905.577794 70.448906 
L 887.577794 70.448906 
z
" style="fill: #2e8b57"/>
    </g>
    <g id="text_28">
     <!-- &gt;0.75 -->
     <g transform="translate(912.777794 76.748906) scale(0.09 -0.09)">
      <defs>
       <path id="DejaVuSans-3e" d="M 678 3150 
L 678 3719 
L 4684 2266 
L 4684 1747 
L 678 294 
L 678 863 
L 3897 2003 
L 678 3150 
z
" transform="scale(0.015625)"/>
      </defs>
      <use xlink:href="#DejaVuSans-3e"/>
      <use xlink:href="#DejaVuSans-30" transform="translate(83.789062 0)"/>
      <use xlink:href="#DejaVuSans-2e" transform="translate(147.412109 0)"/>
      <use xlink:href="#DejaVuSans-37" transform="translate(179.199219 0)"/>
      <use xlink:href="#DejaVuSans-35" transform="translate(242.822266 0)"/>
     </g>
    </g>
    <g id="patch_23">
     <path d="M 887.577794 89.959219 
L 905.577794 89.959219 
L 905.577794 83.659219 
L 887.577794 83.659219 
z
" style="fill: #7a4eb3"/>
    </g>
    <g id="text_29">
     <!-- &gt;0.9 -->
     <g transform="translate(912.777794 89.959219) scale(0.09 -0.09)">
      <use xlink:href="#DejaVuSans-3e"/>
      <use xlink:href="#DejaVuSans-30" transform="translate(83.789062 0)"/>
      <use xlink:href="#DejaVuSans-2e" transform="translate(147.412109 0)"/>
      <use xlink:href="#DejaVuSans-39" transform="translate(179.199219 0)"/>
     </g>
    </g>
   </g>
  </g>
  <g id="axes_3">
   <g id="patch_24">
    <path d="M 66.35 565.769308 
L 473.298812 565.769308 
L 473.298812 335.284654 
L 66.35 335.284654 
z
" style="fill: #ffffff"/>
   </g>
   <g id="matplotlib.axis_5">
    <g id="xtick_7">
     <g id="line2d_35">
      <path d="M 84.847673 565.769308 
L 84.847673 335.284654 
" clip-path="url(#pd5c227018a)" style="fill: none; stroke: #d9d9d9; stroke-opacity: 0.7; stroke-width: 0.7; stroke-linecap: square"/>
     </g>
     <g id="line2d_36">
      <g>
       <use xlink:href="#m5480ea85e5" x="84.847673" y="565.769308" style="stroke: #000000; stroke-width: 0.8"/>
      </g>
     </g>
     <g id="text_30">
      <!-- d384 -->
      <g transform="translate(72.129705 580.367745) scale(0.1 -0.1)">
       <use xlink:href="#DejaVuSans-64"/>
       <use xlink:href="#DejaVuSans-33" transform="translate(63.476562 0)"/>
       <use xlink:href="#DejaVuSans-38" transform="translate(127.099609 0)"/>
       <use xlink:href="#DejaVuSans-34" transform="translate(190.722656 0)"/>
      </g>
     </g>
    </g>
    <g id="xtick_8">
     <g id="line2d_37">
      <path d="M 269.824406 565.769308 
L 269.824406 335.284654 
" clip-path="url(#pd5c227018a)" style="fill: none; stroke: #d9d9d9; stroke-opacity: 0.7; stroke-width: 0.7; stroke-linecap: square"/>
     </g>
     <g id="line2d_38">
      <g>
       <use xlink:href="#m5480ea85e5" x="269.824406" y="565.769308" style="stroke: #000000; stroke-width: 0.8"/>
      </g>
     </g>
     <g id="text_31">
      <!-- d768 -->
      <g transform="translate(257.106437 580.367745) scale(0.1 -0.1)">
       <use xlink:href="#DejaVuSans-64"/>
       <use xlink:href="#DejaVuSans-37" transform="translate(63.476562 0)"/>
       <use xlink:href="#DejaVuSans-36" transform="translate(127.099609 0)"/>
       <use xlink:href="#DejaVuSans-38" transform="translate(190.722656 0)"/>
      </g>
     </g>
    </g>
    <g id="xtick_9">
     <g id="line2d_39">
      <path d="M 454.801139 565.769308 
L 454.801139 335.284654 
" clip-path="url(#pd5c227018a)" style="fill: none; stroke: #d9d9d9; stroke-opacity: 0.7; stroke-width: 0.7; stroke-linecap: square"/>
     </g>
     <g id="line2d_40">
      <g>
       <use xlink:href="#m5480ea85e5" x="454.801139" y="565.769308" style="stroke: #000000; stroke-width: 0.8"/>
      </g>
     </g>
     <g id="text_32">
      <!-- d1536 -->
      <g transform="translate(438.90192 580.367745) scale(0.1 -0.1)">
       <use xlink:href="#DejaVuSans-64"/>
       <use xlink:href="#DejaVuSans-31" transform="translate(63.476562 0)"/>
       <use xlink:href="#DejaVuSans-35" transform="translate(127.099609 0)"/>
       <use xlink:href="#DejaVuSans-33" transform="translate(190.722656 0)"/>
       <use xlink:href="#DejaVuSans-36" transform="translate(254.345703 0)"/>
      </g>
     </g>
    </g>
   </g>
   <g id="matplotlib.axis_6">
    <g id="ytick_13">
     <g id="line2d_41">
      <path d="M 66.35 565.769308 
L 473.298812 565.769308 
" clip-path="url(#pd5c227018a)" style="fill: none; stroke: #d9d9d9; stroke-opacity: 0.7; stroke-width: 0.7; stroke-linecap: square"/>
     </g>
     <g id="line2d_42">
      <g>
       <use xlink:href="#ma2405eae1d" x="66.35" y="565.769308" style="stroke: #000000; stroke-width: 0.8"/>
      </g>
     </g>
     <g id="text_33">
      <!-- 0.0 -->
      <g transform="translate(43.446875 569.568526) scale(0.1 -0.1)">
       <use xlink:href="#DejaVuSans-30"/>
       <use xlink:href="#DejaVuSans-2e" transform="translate(63.623047 0)"/>
       <use xlink:href="#DejaVuSans-30" transform="translate(95.410156 0)"/>
      </g>
     </g>
    </g>
    <g id="ytick_14">
     <g id="line2d_43">
      <path d="M 66.35 531.265519 
L 473.298812 531.265519 
" clip-path="url(#pd5c227018a)" style="fill: none; stroke: #d9d9d9; stroke-opacity: 0.7; stroke-width: 0.7; stroke-linecap: square"/>
     </g>
     <g id="line2d_44">
      <g>
       <use xlink:href="#ma2405eae1d" x="66.35" y="531.265519" style="stroke: #000000; stroke-width: 0.8"/>
      </g>
     </g>
     <g id="text_34">
      <!-- 0.1 -->
      <g transform="translate(43.446875 535.064738) scale(0.1 -0.1)">
       <use xlink:href="#DejaVuSans-30"/>
       <use xlink:href="#DejaVuSans-2e" transform="translate(63.623047 0)"/>
       <use xlink:href="#DejaVuSans-31" transform="translate(95.410156 0)"/>
      </g>
     </g>
    </g>
    <g id="ytick_15">
     <g id="line2d_45">
      <path d="M 66.35 496.76173 
L 473.298812 496.76173 
" clip-path="url(#pd5c227018a)" style="fill: none; stroke: #d9d9d9; stroke-opacity: 0.7; stroke-width: 0.7; stroke-linecap: square"/>
     </g>
     <g id="line2d_46">
      <g>
       <use xlink:href="#ma2405eae1d" x="66.35" y="496.76173" style="stroke: #000000; stroke-width: 0.8"/>
      </g>
     </g>
     <g id="text_35">
      <!-- 0.2 -->
      <g transform="translate(43.446875 500.560949) scale(0.1 -0.1)">
       <use xlink:href="#DejaVuSans-30"/>
       <use xlink:href="#DejaVuSans-2e" transform="translate(63.623047 0)"/>
       <use xlink:href="#DejaVuSans-32" transform="translate(95.410156 0)"/>
      </g>
     </g>
    </g>
    <g id="ytick_16">
     <g id="line2d_47">
      <path d="M 66.35 462.257942 
L 473.298812 462.257942 
" clip-path="url(#pd5c227018a)" style="fill: none; stroke: #d9d9d9; stroke-opacity: 0.7; stroke-width: 0.7; stroke-linecap: square"/>
     </g>
     <g id="line2d_48">
      <g>
       <use xlink:href="#ma2405eae1d" x="66.35" y="462.257942" style="stroke: #000000; stroke-width: 0.8"/>
      </g>
     </g>
     <g id="text_36">
      <!-- 0.3 -->
      <g transform="translate(43.446875 466.057161) scale(0.1 -0.1)">
       <use xlink:href="#DejaVuSans-30"/>
       <use xlink:href="#DejaVuSans-2e" transform="translate(63.623047 0)"/>
       <use xlink:href="#DejaVuSans-33" transform="translate(95.410156 0)"/>
      </g>
     </g>
    </g>
    <g id="ytick_17">
     <g id="line2d_49">
      <path d="M 66.35 427.754153 
L 473.298812 427.754153 
" clip-path="url(#pd5c227018a)" style="fill: none; stroke: #d9d9d9; stroke-opacity: 0.7; stroke-width: 0.7; stroke-linecap: square"/>
     </g>
     <g id="line2d_50">
      <g>
       <use xlink:href="#ma2405eae1d" x="66.35" y="427.754153" style="stroke: #000000; stroke-width: 0.8"/>
      </g>
     </g>
     <g id="text_37">
      <!-- 0.4 -->
      <g transform="translate(43.446875 431.553372) scale(0.1 -0.1)">
       <use xlink:href="#DejaVuSans-30"/>
       <use xlink:href="#DejaVuSans-2e" transform="translate(63.623047 0)"/>
       <use xlink:href="#DejaVuSans-34" transform="translate(95.410156 0)"/>
      </g>
     </g>
    </g>
    <g id="ytick_18">
     <g id="line2d_51">
      <path d="M 66.35 393.250365 
L 473.298812 393.250365 
" clip-path="url(#pd5c227018a)" style="fill: none; stroke: #d9d9d9; stroke-opacity: 0.7; stroke-width: 0.7; stroke-linecap: square"/>
     </g>
     <g id="line2d_52">
      <g>
       <use xlink:href="#ma2405eae1d" x="66.35" y="393.250365" style="stroke: #000000; stroke-width: 0.8"/>
      </g>
     </g>
     <g id="text_38">
      <!-- 0.5 -->
      <g transform="translate(43.446875 397.049583) scale(0.1 -0.1)">
       <use xlink:href="#DejaVuSans-30"/>
       <use xlink:href="#DejaVuSans-2e" transform="translate(63.623047 0)"/>
       <use xlink:href="#DejaVuSans-35" transform="translate(95.410156 0)"/>
      </g>
     </g>
    </g>
    <g id="ytick_19">
     <g id="line2d_53">
      <path d="M 66.35 358.746576 
L 473.298812 358.746576 
" clip-path="url(#pd5c227018a)" style="fill: none; stroke: #d9d9d9; stroke-opacity: 0.7; stroke-width: 0.7; stroke-linecap: square"/>
     </g>
     <g id="line2d_54">
      <g>
       <use xlink:href="#ma2405eae1d" x="66.35" y="358.746576" style="stroke: #000000; stroke-width: 0.8"/>
      </g>
     </g>
     <g id="text_39">
      <!-- 0.6 -->
      <g transform="translate(43.446875 362.545795) scale(0.1 -0.1)">
       <use xlink:href="#DejaVuSans-30"/>
       <use xlink:href="#DejaVuSans-2e" transform="translate(63.623047 0)"/>
       <use xlink:href="#DejaVuSans-36" transform="translate(95.410156 0)"/>
      </g>
     </g>
    </g>
    <g id="text_40">
     <!-- mean unique fraction -->
     <g transform="translate(37.367188 504.237137) rotate(-90) scale(0.1 -0.1)">
      <defs>
       <path id="DejaVuSans-75" d="M 544 1381 
L 544 3500 
L 1119 3500 
L 1119 1403 
Q 1119 906 1312 657 
Q 1506 409 1894 409 
Q 2359 409 2629 706 
Q 2900 1003 2900 1516 
L 2900 3500 
L 3475 3500 
L 3475 0 
L 2900 0 
L 2900 538 
Q 2691 219 2414 64 
Q 2138 -91 1772 -91 
Q 1169 -91 856 284 
Q 544 659 544 1381 
z
M 1991 3584 
L 1991 3584 
z
" transform="scale(0.015625)"/>
       <path id="DejaVuSans-71" d="M 947 1747 
Q 947 1113 1208 752 
Q 1469 391 1925 391 
Q 2381 391 2643 752 
Q 2906 1113 2906 1747 
Q 2906 2381 2643 2742 
Q 2381 3103 1925 3103 
Q 1469 3103 1208 2742 
Q 947 2381 947 1747 
z
M 2906 525 
Q 2725 213 2448 61 
Q 2172 -91 1784 -91 
Q 1150 -91 751 415 
Q 353 922 353 1747 
Q 353 2572 751 3078 
Q 1150 3584 1784 3584 
Q 2172 3584 2448 3432 
Q 2725 3281 2906 2969 
L 2906 3500 
L 3481 3500 
L 3481 -1331 
L 2906 -1331 
L 2906 525 
z
" transform="scale(0.015625)"/>
      </defs>
      <use xlink:href="#DejaVuSans-6d"/>
      <use xlink:href="#DejaVuSans-65" transform="translate(97.412109 0)"/>
      <use xlink:href="#DejaVuSans-61" transform="translate(158.935547 0)"/>
      <use xlink:href="#DejaVuSans-6e" transform="translate(220.214844 0)"/>
      <use xlink:href="#DejaVuSans-20" transform="translate(283.59375 0)"/>
      <use xlink:href="#DejaVuSans-75" transform="translate(315.380859 0)"/>
      <use xlink:href="#DejaVuSans-6e" transform="translate(378.759766 0)"/>
      <use xlink:href="#DejaVuSans-69" transform="translate(442.138672 0)"/>
      <use xlink:href="#DejaVuSans-71" transform="translate(469.921875 0)"/>
      <use xlink:href="#DejaVuSans-75" transform="translate(533.398438 0)"/>
      <use xlink:href="#DejaVuSans-65" transform="translate(596.777344 0)"/>
      <use xlink:href="#DejaVuSans-20" transform="translate(658.300781 0)"/>
      <use xlink:href="#DejaVuSans-66" transform="translate(690.087891 0)"/>
      <use xlink:href="#DejaVuSans-72" transform="translate(725.292969 0)"/>
      <use xlink:href="#DejaVuSans-61" transform="translate(766.40625 0)"/>
      <use xlink:href="#DejaVuSans-63" transform="translate(827.685547 0)"/>
      <use xlink:href="#DejaVuSans-74" transform="translate(882.666016 0)"/>
      <use xlink:href="#DejaVuSans-69" transform="translate(921.875 0)"/>
      <use xlink:href="#DejaVuSans-6f" transform="translate(949.658203 0)"/>
      <use xlink:href="#DejaVuSans-6e" transform="translate(1010.839844 0)"/>
     </g>
    </g>
   </g>
   <g id="line2d_55">
    <path d="M 84.847673 416.547433 
L 269.824406 416.547433 
L 454.801139 416.547433 
" clip-path="url(#pd5c227018a)" style="fill: none; stroke: #3b6fb6; stroke-width: 2; stroke-linecap: square"/>
    <defs>
     <path id="md3df38c28a" d="M 0 3 
C 0.795609 3 1.55874 2.683901 2.12132 2.12132 
C 2.683901 1.55874 3 0.795609 3 0 
C 3 -0.795609 2.683901 -1.55874 2.12132 -2.12132 
C 1.55874 -2.683901 0.795609 -3 0 -3 
C -0.795609 -3 -1.55874 -2.683901 -2.12132 -2.12132 
C -2.683901 -1.55874 -3 -0.795609 -3 0 
C -3 0.795609 -2.683901 1.55874 -2.12132 2.12132 
C -1.55874 2.683901 -0.795609 3 0 3 
z
" style="stroke: #3b6fb6"/>
    </defs>
    <g clip-path="url(#pd5c227018a)">
     <use xlink:href="#md3df38c28a" x="84.847673" y="416.547433" style="fill: #3b6fb6; stroke: #3b6fb6"/>
     <use xlink:href="#md3df38c28a" x="269.824406" y="416.547433" style="fill: #3b6fb6; stroke: #3b6fb6"/>
     <use xlink:href="#md3df38c28a" x="454.801139" y="416.547433" style="fill: #3b6fb6; stroke: #3b6fb6"/>
    </g>
   </g>
   <g id="line2d_56">
    <path d="M 84.847673 365.34787 
L 269.824406 365.34787 
L 454.801139 365.34787 
" clip-path="url(#pd5c227018a)" style="fill: none; stroke: #c46a3a; stroke-width: 2; stroke-linecap: square"/>
    <defs>
     <path id="m4ac6b2ce67" d="M 0 3 
C 0.795609 3 1.55874 2.683901 2.12132 2.12132 
C 2.683901 1.55874 3 0.795609 3 0 
C 3 -0.795609 2.683901 -1.55874 2.12132 -2.12132 
C 1.55874 -2.683901 0.795609 -3 0 -3 
C -0.795609 -3 -1.55874 -2.683901 -2.12132 -2.12132 
C -2.683901 -1.55874 -3 -0.795609 -3 0 
C -3 0.795609 -2.683901 1.55874 -2.12132 2.12132 
C -1.55874 2.683901 -0.795609 3 0 3 
z
" style="stroke: #c46a3a"/>
    </defs>
    <g clip-path="url(#pd5c227018a)">
     <use xlink:href="#m4ac6b2ce67" x="84.847673" y="365.34787" style="fill: #c46a3a; stroke: #c46a3a"/>
     <use xlink:href="#m4ac6b2ce67" x="269.824406" y="365.34787" style="fill: #c46a3a; stroke: #c46a3a"/>
     <use xlink:href="#m4ac6b2ce67" x="454.801139" y="365.34787" style="fill: #c46a3a; stroke: #c46a3a"/>
    </g>
   </g>
   <g id="patch_25">
    <path d="M 66.35 565.769308 
L 66.35 335.284654 
" style="fill: none; stroke: #000000; stroke-width: 0.8; stroke-linejoin: miter; stroke-linecap: square"/>
   </g>
   <g id="patch_26">
    <path d="M 473.298812 565.769308 
L 473.298812 335.284654 
" style="fill: none; stroke: #000000; stroke-width: 0.8; stroke-linejoin: miter; stroke-linecap: square"/>
   </g>
   <g id="patch_27">
    <path d="M 66.35 565.769308 
L 473.298812 565.769308 
" style="fill: none; stroke: #000000; stroke-width: 0.8; stroke-linejoin: miter; stroke-linecap: square"/>
   </g>
   <g id="patch_28">
    <path d="M 66.35 335.284654 
L 473.298812 335.284654 
" style="fill: none; stroke: #000000; stroke-width: 0.8; stroke-linejoin: miter; stroke-linecap: square"/>
   </g>
   <g id="text_41">
    <!-- Rows Touched Per Head -->
    <g transform="translate(198.531281 329.284654) scale(0.12 -0.12)">
     <defs>
      <path id="DejaVuSans-52" d="M 2841 2188 
Q 3044 2119 3236 1894 
Q 3428 1669 3622 1275 
L 4263 0 
L 3584 0 
L 2988 1197 
Q 2756 1666 2539 1819 
Q 2322 1972 1947 1972 
L 1259 1972 
L 1259 0 
L 628 0 
L 628 4666 
L 2053 4666 
Q 2853 4666 3247 4331 
Q 3641 3997 3641 3322 
Q 3641 2881 3436 2590 
Q 3231 2300 2841 2188 
z
M 1259 4147 
L 1259 2491 
L 2053 2491 
Q 2509 2491 2742 2702 
Q 2975 2913 2975 3322 
Q 2975 3731 2742 3939 
Q 2509 4147 2053 4147 
L 1259 4147 
z
" transform="scale(0.015625)"/>
      <path id="DejaVuSans-77" d="M 269 3500 
L 844 3500 
L 1563 769 
L 2278 3500 
L 2956 3500 
L 3675 769 
L 4391 3500 
L 4966 3500 
L 4050 0 
L 3372 0 
L 2619 2869 
L 1863 0 
L 1184 0 
L 269 3500 
z
" transform="scale(0.015625)"/>
      <path id="DejaVuSans-54" d="M -19 4666 
L 3928 4666 
L 3928 4134 
L 2272 4134 
L 2272 0 
L 1638 0 
L 1638 4134 
L -19 4134 
L -19 4666 
z
" transform="scale(0.015625)"/>
      <path id="DejaVuSans-68" d="M 3513 2113 
L 3513 0 
L 2938 0 
L 2938 2094 
Q 2938 2591 2744 2837 
Q 2550 3084 2163 3084 
Q 1697 3084 1428 2787 
Q 1159 2491 1159 1978 
L 1159 0 
L 581 0 
L 581 4863 
L 1159 4863 
L 1159 2956 
Q 1366 3272 1645 3428 
Q 1925 3584 2291 3584 
Q 2894 3584 3203 3211 
Q 3513 2838 3513 2113 
z
" transform="scale(0.015625)"/>
      <path id="DejaVuSans-50" d="M 1259 4147 
L 1259 2394 
L 2053 2394 
Q 2494 2394 2734 2622 
Q 2975 2850 2975 3272 
Q 2975 3691 2734 3919 
Q 2494 4147 2053 4147 
L 1259 4147 
z
M 628 4666 
L 2053 4666 
Q 2838 4666 3239 4311 
Q 3641 3956 3641 3272 
Q 3641 2581 3239 2228 
Q 2838 1875 2053 1875 
L 1259 1875 
L 1259 0 
L 628 0 
L 628 4666 
z
" transform="scale(0.015625)"/>
      <path id="DejaVuSans-48" d="M 628 4666 
L 1259 4666 
L 1259 2753 
L 3553 2753 
L 3553 4666 
L 4184 4666 
L 4184 0 
L 3553 0 
L 3553 2222 
L 1259 2222 
L 1259 0 
L 628 0 
L 628 4666 
z
" transform="scale(0.015625)"/>
     </defs>
     <use xlink:href="#DejaVuSans-52"/>
     <use xlink:href="#DejaVuSans-6f" transform="translate(64.982422 0)"/>
     <use xlink:href="#DejaVuSans-77" transform="translate(126.164062 0)"/>
     <use xlink:href="#DejaVuSans-73" transform="translate(207.951172 0)"/>
     <use xlink:href="#DejaVuSans-20" transform="translate(260.050781 0)"/>
     <use xlink:href="#DejaVuSans-54" transform="translate(291.837891 0)"/>
     <use xlink:href="#DejaVuSans-6f" transform="translate(335.921875 0)"/>
     <use xlink:href="#DejaVuSans-75" transform="translate(397.103516 0)"/>
     <use xlink:href="#DejaVuSans-63" transform="translate(460.482422 0)"/>
     <use xlink:href="#DejaVuSans-68" transform="translate(515.462891 0)"/>
     <use xlink:href="#DejaVuSans-65" transform="translate(578.841797 0)"/>
     <use xlink:href="#DejaVuSans-64" transform="translate(640.365234 0)"/>
     <use xlink:href="#DejaVuSans-20" transform="translate(703.841797 0)"/>
     <use xlink:href="#DejaVuSans-50" transform="translate(735.628906 0)"/>
     <use xlink:href="#DejaVuSans-65" transform="translate(792.306641 0)"/>
     <use xlink:href="#DejaVuSans-72" transform="translate(853.830078 0)"/>
     <use xlink:href="#DejaVuSans-20" transform="translate(894.943359 0)"/>
     <use xlink:href="#DejaVuSans-48" transform="translate(926.730469 0)"/>
     <use xlink:href="#DejaVuSans-65" transform="translate(1001.925781 0)"/>
     <use xlink:href="#DejaVuSans-61" transform="translate(1063.449219 0)"/>
     <use xlink:href="#DejaVuSans-64" transform="translate(1124.728516 0)"/>
    </g>
   </g>
   <g id="legend_2">
    <g id="line2d_57">
     <path d="M 74.45 539.437276 
L 83.45 539.437276 
L 92.45 539.437276 
" style="fill: none; stroke: #3b6fb6; stroke-width: 2; stroke-linecap: square"/>
     <g>
      <use xlink:href="#md3df38c28a" x="83.45" y="539.437276" style="fill: #3b6fb6; stroke: #3b6fb6"/>
     </g>
    </g>
    <g id="text_42">
     <!-- bigram -->
     <g transform="translate(99.65 542.587276) scale(0.09 -0.09)">
      <defs>
       <path id="DejaVuSans-62" d="M 3116 1747 
Q 3116 2381 2855 2742 
Q 2594 3103 2138 3103 
Q 1681 3103 1420 2742 
Q 1159 2381 1159 1747 
Q 1159 1113 1420 752 
Q 1681 391 2138 391 
Q 2594 391 2855 752 
Q 3116 1113 3116 1747 
z
M 1159 2969 
Q 1341 3281 1617 3432 
Q 1894 3584 2278 3584 
Q 2916 3584 3314 3078 
Q 3713 2572 3713 1747 
Q 3713 922 3314 415 
Q 2916 -91 2278 -91 
Q 1894 -91 1617 61 
Q 1341 213 1159 525 
L 1159 0 
L 581 0 
L 581 4863 
L 1159 4863 
L 1159 2969 
z
" transform="scale(0.015625)"/>
      </defs>
      <use xlink:href="#DejaVuSans-62"/>
      <use xlink:href="#DejaVuSans-69" transform="translate(63.476562 0)"/>
      <use xlink:href="#DejaVuSans-67" transform="translate(91.259766 0)"/>
      <use xlink:href="#DejaVuSans-72" transform="translate(154.736328 0)"/>
      <use xlink:href="#DejaVuSans-61" transform="translate(195.849609 0)"/>
      <use xlink:href="#DejaVuSans-6d" transform="translate(257.128906 0)"/>
     </g>
    </g>
    <g id="line2d_58">
     <path d="M 74.45 552.647589 
L 83.45 552.647589 
L 92.45 552.647589 
" style="fill: none; stroke: #c46a3a; stroke-width: 2; stroke-linecap: square"/>
     <g>
      <use xlink:href="#m4ac6b2ce67" x="83.45" y="552.647589" style="fill: #c46a3a; stroke: #c46a3a"/>
     </g>
    </g>
    <g id="text_43">
     <!-- trigram -->
     <g transform="translate(99.65 555.797589) scale(0.09 -0.09)">
      <use xlink:href="#DejaVuSans-74"/>
      <use xlink:href="#DejaVuSans-72" transform="translate(39.208984 0)"/>
      <use xlink:href="#DejaVuSans-69" transform="translate(80.322266 0)"/>
      <use xlink:href="#DejaVuSans-67" transform="translate(108.105469 0)"/>
      <use xlink:href="#DejaVuSans-72" transform="translate(171.582031 0)"/>
      <use xlink:href="#DejaVuSans-61" transform="translate(212.695312 0)"/>
      <use xlink:href="#DejaVuSans-6d" transform="translate(273.974609 0)"/>
     </g>
    </g>
   </g>
  </g>
  <g id="axes_4">
   <g id="patch_29">
    <path d="M 541.509763 565.769308 
L 948.458575 565.769308 
L 948.458575 335.284654 
L 541.509763 335.284654 
z
" style="fill: #ffffff"/>
   </g>
   <g id="matplotlib.axis_7">
    <g id="xtick_10">
     <g id="line2d_59">
      <g>
       <use xlink:href="#m5480ea85e5" x="560.007436" y="565.769308" style="stroke: #000000; stroke-width: 0.8"/>
      </g>
     </g>
     <g id="text_44">
      <!-- newline -->
      <g transform="translate(542.760804 593.151027) rotate(-20) scale(0.1 -0.1)">
       <use xlink:href="#DejaVuSans-6e"/>
       <use xlink:href="#DejaVuSans-65" transform="translate(63.378906 0)"/>
       <use xlink:href="#DejaVuSans-77" transform="translate(124.902344 0)"/>
       <use xlink:href="#DejaVuSans-6c" transform="translate(206.689453 0)"/>
       <use xlink:href="#DejaVuSans-69" transform="translate(234.472656 0)"/>
       <use xlink:href="#DejaVuSans-6e" transform="translate(262.255859 0)"/>
       <use xlink:href="#DejaVuSans-65" transform="translate(325.634766 0)"/>
      </g>
     </g>
    </g>
    <g id="xtick_11">
     <g id="line2d_60">
      <g>
       <use xlink:href="#m5480ea85e5" x="621.666347" y="565.769308" style="stroke: #000000; stroke-width: 0.8"/>
      </g>
     </g>
     <g id="text_45">
      <!-- pipe -->
      <g transform="translate(612.448214 587.306758) rotate(-20) scale(0.1 -0.1)">
       <defs>
        <path id="DejaVuSans-70" d="M 1159 525 
L 1159 -1331 
L 581 -1331 
L 581 3500 
L 1159 3500 
L 1159 2969 
Q 1341 3281 1617 3432 
Q 1894 3584 2278 3584 
Q 2916 3584 3314 3078 
Q 3713 2572 3713 1747 
Q 3713 922 3314 415 
Q 2916 -91 2278 -91 
Q 1894 -91 1617 61 
Q 1341 213 1159 525 
z
M 3116 1747 
Q 3116 2381 2855 2742 
Q 2594 3103 2138 3103 
Q 1681 3103 1420 2742 
Q 1159 2381 1159 1747 
Q 1159 1113 1420 752 
Q 1681 391 2138 391 
Q 2594 391 2855 752 
Q 3116 1113 3116 1747 
z
" transform="scale(0.015625)"/>
       </defs>
       <use xlink:href="#DejaVuSans-70"/>
       <use xlink:href="#DejaVuSans-69" transform="translate(63.476562 0)"/>
       <use xlink:href="#DejaVuSans-70" transform="translate(91.259766 0)"/>
       <use xlink:href="#DejaVuSans-65" transform="translate(154.736328 0)"/>
      </g>
     </g>
    </g>
    <g id="xtick_12">
     <g id="line2d_61">
      <g>
       <use xlink:href="#m5480ea85e5" x="683.325258" y="565.769308" style="stroke: #000000; stroke-width: 0.8"/>
      </g>
     </g>
     <g id="text_46">
      <!-- digit -->
      <g transform="translate(673.850912 587.493266) rotate(-20) scale(0.1 -0.1)">
       <use xlink:href="#DejaVuSans-64"/>
       <use xlink:href="#DejaVuSans-69" transform="translate(63.476562 0)"/>
       <use xlink:href="#DejaVuSans-67" transform="translate(91.259766 0)"/>
       <use xlink:href="#DejaVuSans-69" transform="translate(154.736328 0)"/>
       <use xlink:href="#DejaVuSans-74" transform="translate(182.519531 0)"/>
      </g>
     </g>
    </g>
    <g id="xtick_13">
     <g id="line2d_62">
      <g>
       <use xlink:href="#m5480ea85e5" x="744.984169" y="565.769308" style="stroke: #000000; stroke-width: 0.8"/>
      </g>
     </g>
     <g id="text_47">
      <!-- alpha -->
      <g transform="translate(732.903644 589.390409) rotate(-20) scale(0.1 -0.1)">
       <use xlink:href="#DejaVuSans-61"/>
       <use xlink:href="#DejaVuSans-6c" transform="translate(61.279297 0)"/>
       <use xlink:href="#DejaVuSans-70" transform="translate(89.0625 0)"/>
       <use xlink:href="#DejaVuSans-68" transform="translate(152.539062 0)"/>
       <use xlink:href="#DejaVuSans-61" transform="translate(215.917969 0)"/>
      </g>
     </g>
    </g>
    <g id="xtick_14">
     <g id="line2d_63">
      <g>
       <use xlink:href="#m5480ea85e5" x="806.64308" y="565.769308" style="stroke: #000000; stroke-width: 0.8"/>
      </g>
     </g>
     <g id="text_48">
      <!-- punct -->
      <g transform="translate(794.223385 589.637304) rotate(-20) scale(0.1 -0.1)">
       <use xlink:href="#DejaVuSans-70"/>
       <use xlink:href="#DejaVuSans-75" transform="translate(63.476562 0)"/>
       <use xlink:href="#DejaVuSans-6e" transform="translate(126.855469 0)"/>
       <use xlink:href="#DejaVuSans-63" transform="translate(190.234375 0)"/>
       <use xlink:href="#DejaVuSans-74" transform="translate(245.214844 0)"/>
      </g>
     </g>
    </g>
    <g id="xtick_15">
     <g id="line2d_64">
      <g>
       <use xlink:href="#m5480ea85e5" x="868.301991" y="565.769308" style="stroke: #000000; stroke-width: 0.8"/>
      </g>
     </g>
     <g id="text_49">
      <!-- mixed -->
      <g transform="translate(854.855975 590.384405) rotate(-20) scale(0.1 -0.1)">
       <defs>
        <path id="DejaVuSans-78" d="M 3513 3500 
L 2247 1797 
L 3578 0 
L 2900 0 
L 1881 1375 
L 863 0 
L 184 0 
L 1544 1831 
L 300 3500 
L 978 3500 
L 1906 2253 
L 2834 3500 
L 3513 3500 
z
" transform="scale(0.015625)"/>
       </defs>
       <use xlink:href="#DejaVuSans-6d"/>
       <use xlink:href="#DejaVuSans-69" transform="translate(97.412109 0)"/>
       <use xlink:href="#DejaVuSans-78" transform="translate(125.195312 0)"/>
       <use xlink:href="#DejaVuSans-65" transform="translate(181.25 0)"/>
       <use xlink:href="#DejaVuSans-64" transform="translate(242.773438 0)"/>
      </g>
     </g>
    </g>
    <g id="xtick_16">
     <g id="line2d_65">
      <g>
       <use xlink:href="#m5480ea85e5" x="929.960902" y="565.769308" style="stroke: #000000; stroke-width: 0.8"/>
      </g>
     </g>
     <g id="text_50">
      <!-- whitespace -->
      <g transform="translate(904.262175 599.303649) rotate(-20) scale(0.1 -0.1)">
       <use xlink:href="#DejaVuSans-77"/>
       <use xlink:href="#DejaVuSans-68" transform="translate(81.787109 0)"/>
       <use xlink:href="#DejaVuSans-69" transform="translate(145.166016 0)"/>
       <use xlink:href="#DejaVuSans-74" transform="translate(172.949219 0)"/>
       <use xlink:href="#DejaVuSans-65" transform="translate(212.158203 0)"/>
       <use xlink:href="#DejaVuSans-73" transform="translate(273.681641 0)"/>
       <use xlink:href="#DejaVuSans-70" transform="translate(325.78125 0)"/>
       <use xlink:href="#DejaVuSans-61" transform="translate(389.257812 0)"/>
       <use xlink:href="#DejaVuSans-63" transform="translate(450.537109 0)"/>
       <use xlink:href="#DejaVuSans-65" transform="translate(505.517578 0)"/>
      </g>
     </g>
    </g>
   </g>
   <g id="matplotlib.axis_8">
    <g id="ytick_20">
     <g id="line2d_66">
      <path d="M 541.509763 544.716347 
L 948.458575 544.716347 
" clip-path="url(#p63e63238b7)" style="fill: none; stroke: #d9d9d9; stroke-opacity: 0.7; stroke-width: 0.7; stroke-linecap: square"/>
     </g>
     <g id="line2d_67">
      <g>
       <use xlink:href="#ma2405eae1d" x="541.509763" y="544.716347" style="stroke: #000000; stroke-width: 0.8"/>
      </g>
     </g>
     <g id="text_51">
      <!-- 40 -->
      <g transform="translate(521.784763 548.515566) scale(0.1 -0.1)">
       <use xlink:href="#DejaVuSans-34"/>
       <use xlink:href="#DejaVuSans-30" transform="translate(63.623047 0)"/>
      </g>
     </g>
    </g>
    <g id="ytick_21">
     <g id="line2d_68">
      <path d="M 541.509763 512.500672 
L 948.458575 512.500672 
" clip-path="url(#p63e63238b7)" style="fill: none; stroke: #d9d9d9; stroke-opacity: 0.7; stroke-width: 0.7; stroke-linecap: square"/>
     </g>
     <g id="line2d_69">
      <g>
       <use xlink:href="#ma2405eae1d" x="541.509763" y="512.500672" style="stroke: #000000; stroke-width: 0.8"/>
      </g>
     </g>
     <g id="text_52">
      <!-- 50 -->
      <g transform="translate(521.784763 516.299891) scale(0.1 -0.1)">
       <use xlink:href="#DejaVuSans-35"/>
       <use xlink:href="#DejaVuSans-30" transform="translate(63.623047 0)"/>
      </g>
     </g>
    </g>
    <g id="ytick_22">
     <g id="line2d_70">
      <path d="M 541.509763 480.284996 
L 948.458575 480.284996 
" clip-path="url(#p63e63238b7)" style="fill: none; stroke: #d9d9d9; stroke-opacity: 0.7; stroke-width: 0.7; stroke-linecap: square"/>
     </g>
     <g id="line2d_71">
      <g>
       <use xlink:href="#ma2405eae1d" x="541.509763" y="480.284996" style="stroke: #000000; stroke-width: 0.8"/>
      </g>
     </g>
     <g id="text_53">
      <!-- 60 -->
      <g transform="translate(521.784763 484.084215) scale(0.1 -0.1)">
       <use xlink:href="#DejaVuSans-36"/>
       <use xlink:href="#DejaVuSans-30" transform="translate(63.623047 0)"/>
      </g>
     </g>
    </g>
    <g id="ytick_23">
     <g id="line2d_72">
      <path d="M 541.509763 448.069321 
L 948.458575 448.069321 
" clip-path="url(#p63e63238b7)" style="fill: none; stroke: #d9d9d9; stroke-opacity: 0.7; stroke-width: 0.7; stroke-linecap: square"/>
     </g>
     <g id="line2d_73">
      <g>
       <use xlink:href="#ma2405eae1d" x="541.509763" y="448.069321" style="stroke: #000000; stroke-width: 0.8"/>
      </g>
     </g>
     <g id="text_54">
      <!-- 70 -->
      <g transform="translate(521.784763 451.86854) scale(0.1 -0.1)">
       <use xlink:href="#DejaVuSans-37"/>
       <use xlink:href="#DejaVuSans-30" transform="translate(63.623047 0)"/>
      </g>
     </g>
    </g>
    <g id="ytick_24">
     <g id="line2d_74">
      <path d="M 541.509763 415.853646 
L 948.458575 415.853646 
" clip-path="url(#p63e63238b7)" style="fill: none; stroke: #d9d9d9; stroke-opacity: 0.7; stroke-width: 0.7; stroke-linecap: square"/>
     </g>
     <g id="line2d_75">
      <g>
       <use xlink:href="#ma2405eae1d" x="541.509763" y="415.853646" style="stroke: #000000; stroke-width: 0.8"/>
      </g>
     </g>
     <g id="text_55">
      <!-- 80 -->
      <g transform="translate(521.784763 419.652864) scale(0.1 -0.1)">
       <use xlink:href="#DejaVuSans-38"/>
       <use xlink:href="#DejaVuSans-30" transform="translate(63.623047 0)"/>
      </g>
     </g>
    </g>
    <g id="ytick_25">
     <g id="line2d_76">
      <path d="M 541.509763 383.63797 
L 948.458575 383.63797 
" clip-path="url(#p63e63238b7)" style="fill: none; stroke: #d9d9d9; stroke-opacity: 0.7; stroke-width: 0.7; stroke-linecap: square"/>
     </g>
     <g id="line2d_77">
      <g>
       <use xlink:href="#ma2405eae1d" x="541.509763" y="383.63797" style="stroke: #000000; stroke-width: 0.8"/>
      </g>
     </g>
     <g id="text_56">
      <!-- 90 -->
      <g transform="translate(521.784763 387.437189) scale(0.1 -0.1)">
       <use xlink:href="#DejaVuSans-39"/>
       <use xlink:href="#DejaVuSans-30" transform="translate(63.623047 0)"/>
      </g>
     </g>
    </g>
    <g id="ytick_26">
     <g id="line2d_78">
      <path d="M 541.509763 351.422295 
L 948.458575 351.422295 
" clip-path="url(#p63e63238b7)" style="fill: none; stroke: #d9d9d9; stroke-opacity: 0.7; stroke-width: 0.7; stroke-linecap: square"/>
     </g>
     <g id="line2d_79">
      <g>
       <use xlink:href="#ma2405eae1d" x="541.509763" y="351.422295" style="stroke: #000000; stroke-width: 0.8"/>
      </g>
     </g>
     <g id="text_57">
      <!-- 100 -->
      <g transform="translate(515.422263 355.221514) scale(0.1 -0.1)">
       <use xlink:href="#DejaVuSans-31"/>
       <use xlink:href="#DejaVuSans-30" transform="translate(63.623047 0)"/>
       <use xlink:href="#DejaVuSans-30" transform="translate(127.246094 0)"/>
      </g>
     </g>
    </g>
    <g id="text_58">
     <!-- avg output norm -->
     <g transform="translate(509.342575 492.460575) rotate(-90) scale(0.1 -0.1)">
      <use xlink:href="#DejaVuSans-61"/>
      <use xlink:href="#DejaVuSans-76" transform="translate(61.279297 0)"/>
      <use xlink:href="#DejaVuSans-67" transform="translate(120.458984 0)"/>
      <use xlink:href="#DejaVuSans-20" transform="translate(183.935547 0)"/>
      <use xlink:href="#DejaVuSans-6f" transform="translate(215.722656 0)"/>
      <use xlink:href="#DejaVuSans-75" transform="translate(276.904297 0)"/>
      <use xlink:href="#DejaVuSans-74" transform="translate(340.283203 0)"/>
      <use xlink:href="#DejaVuSans-70" transform="translate(379.492188 0)"/>
      <use xlink:href="#DejaVuSans-75" transform="translate(442.96875 0)"/>
      <use xlink:href="#DejaVuSans-74" transform="translate(506.347656 0)"/>
      <use xlink:href="#DejaVuSans-20" transform="translate(545.556641 0)"/>
      <use xlink:href="#DejaVuSans-6e" transform="translate(577.34375 0)"/>
      <use xlink:href="#DejaVuSans-6f" transform="translate(640.722656 0)"/>
      <use xlink:href="#DejaVuSans-72" transform="translate(701.904297 0)"/>
      <use xlink:href="#DejaVuSans-6d" transform="translate(741.267578 0)"/>
     </g>
    </g>
   </g>
   <g id="line2d_80">
    <path d="M 560.007436 355.206556 
L 621.666347 462.280821 
L 683.325258 539.673423 
L 744.984169 500.741432 
L 806.64308 523.805899 
L 868.301991 490.608381 
L 929.960902 555.292733 
" clip-path="url(#p63e63238b7)" style="fill: none; stroke: #3b6fb6; stroke-width: 2; stroke-linecap: square"/>
    <g clip-path="url(#p63e63238b7)">
     <use xlink:href="#md3df38c28a" x="560.007436" y="355.206556" style="fill: #3b6fb6; stroke: #3b6fb6"/>
     <use xlink:href="#md3df38c28a" x="621.666347" y="462.280821" style="fill: #3b6fb6; stroke: #3b6fb6"/>
     <use xlink:href="#md3df38c28a" x="683.325258" y="539.673423" style="fill: #3b6fb6; stroke: #3b6fb6"/>
     <use xlink:href="#md3df38c28a" x="744.984169" y="500.741432" style="fill: #3b6fb6; stroke: #3b6fb6"/>
     <use xlink:href="#md3df38c28a" x="806.64308" y="523.805899" style="fill: #3b6fb6; stroke: #3b6fb6"/>
     <use xlink:href="#md3df38c28a" x="868.301991" y="490.608381" style="fill: #3b6fb6; stroke: #3b6fb6"/>
     <use xlink:href="#md3df38c28a" x="929.960902" y="555.292733" style="fill: #3b6fb6; stroke: #3b6fb6"/>
    </g>
   </g>
   <g id="line2d_81">
    <path d="M 560.007436 398.499109 
L 621.666347 409.989044 
L 683.325258 499.98568 
L 744.984169 450.986788 
L 806.64308 479.572672 
L 868.301991 431.24517 
L 929.960902 541.669087 
" clip-path="url(#p63e63238b7)" style="fill: none; stroke: #2e8b57; stroke-width: 2; stroke-linecap: square"/>
    <defs>
     <path id="m114cfc227e" d="M 0 3 
C 0.795609 3 1.55874 2.683901 2.12132 2.12132 
C 2.683901 1.55874 3 0.795609 3 0 
C 3 -0.795609 2.683901 -1.55874 2.12132 -2.12132 
C 1.55874 -2.683901 0.795609 -3 0 -3 
C -0.795609 -3 -1.55874 -2.683901 -2.12132 -2.12132 
C -2.683901 -1.55874 -3 -0.795609 -3 0 
C -3 0.795609 -2.683901 1.55874 -2.12132 2.12132 
C -1.55874 2.683901 -0.795609 3 0 3 
z
" style="stroke: #2e8b57"/>
    </defs>
    <g clip-path="url(#p63e63238b7)">
     <use xlink:href="#m114cfc227e" x="560.007436" y="398.499109" style="fill: #2e8b57; stroke: #2e8b57"/>
     <use xlink:href="#m114cfc227e" x="621.666347" y="409.989044" style="fill: #2e8b57; stroke: #2e8b57"/>
     <use xlink:href="#m114cfc227e" x="683.325258" y="499.98568" style="fill: #2e8b57; stroke: #2e8b57"/>
     <use xlink:href="#m114cfc227e" x="744.984169" y="450.986788" style="fill: #2e8b57; stroke: #2e8b57"/>
     <use xlink:href="#m114cfc227e" x="806.64308" y="479.572672" style="fill: #2e8b57; stroke: #2e8b57"/>
     <use xlink:href="#m114cfc227e" x="868.301991" y="431.24517" style="fill: #2e8b57; stroke: #2e8b57"/>
     <use xlink:href="#m114cfc227e" x="929.960902" y="541.669087" style="fill: #2e8b57; stroke: #2e8b57"/>
    </g>
   </g>
   <g id="line2d_82">
    <path d="M 560.007436 533.917705 
L 621.666347 345.761229 
L 683.325258 454.514373 
L 744.984169 383.761777 
L 806.64308 411.913481 
L 868.301991 354.201124 
L 929.960902 527.109014 
" clip-path="url(#p63e63238b7)" style="fill: none; stroke: #7a4eb3; stroke-width: 2; stroke-linecap: square"/>
    <defs>
     <path id="mee67e7c982" d="M 0 3 
C 0.795609 3 1.55874 2.683901 2.12132 2.12132 
C 2.683901 1.55874 3 0.795609 3 0 
C 3 -0.795609 2.683901 -1.55874 2.12132 -2.12132 
C 1.55874 -2.683901 0.795609 -3 0 -3 
C -0.795609 -3 -1.55874 -2.683901 -2.12132 -2.12132 
C -2.683901 -1.55874 -3 -0.795609 -3 0 
C -3 0.795609 -2.683901 1.55874 -2.12132 2.12132 
C -1.55874 2.683901 -0.795609 3 0 3 
z
" style="stroke: #7a4eb3"/>
    </defs>
    <g clip-path="url(#p63e63238b7)">
     <use xlink:href="#mee67e7c982" x="560.007436" y="533.917705" style="fill: #7a4eb3; stroke: #7a4eb3"/>
     <use xlink:href="#mee67e7c982" x="621.666347" y="345.761229" style="fill: #7a4eb3; stroke: #7a4eb3"/>
     <use xlink:href="#mee67e7c982" x="683.325258" y="454.514373" style="fill: #7a4eb3; stroke: #7a4eb3"/>
     <use xlink:href="#mee67e7c982" x="744.984169" y="383.761777" style="fill: #7a4eb3; stroke: #7a4eb3"/>
     <use xlink:href="#mee67e7c982" x="806.64308" y="411.913481" style="fill: #7a4eb3; stroke: #7a4eb3"/>
     <use xlink:href="#mee67e7c982" x="868.301991" y="354.201124" style="fill: #7a4eb3; stroke: #7a4eb3"/>
     <use xlink:href="#mee67e7c982" x="929.960902" y="527.109014" style="fill: #7a4eb3; stroke: #7a4eb3"/>
    </g>
   </g>
   <g id="patch_30">
    <path d="M 541.509763 565.769308 
L 541.509763 335.284654 
" style="fill: none; stroke: #000000; stroke-width: 0.8; stroke-linejoin: miter; stroke-linecap: square"/>
   </g>
   <g id="patch_31">
    <path d="M 948.458575 565.769308 
L 948.458575 335.284654 
" style="fill: none; stroke: #000000; stroke-width: 0.8; stroke-linejoin: miter; stroke-linecap: square"/>
   </g>
   <g id="patch_32">
    <path d="M 541.509763 565.769308 
L 948.458575 565.769308 
" style="fill: none; stroke: #000000; stroke-width: 0.8; stroke-linejoin: miter; stroke-linecap: square"/>
   </g>
   <g id="patch_33">
    <path d="M 541.509763 335.284654 
L 948.458575 335.284654 
" style="fill: none; stroke: #000000; stroke-width: 0.8; stroke-linejoin: miter; stroke-linecap: square"/>
   </g>
   <g id="text_59">
    <!-- Contribution Norm By Token Category -->
    <g transform="translate(631.593544 329.284654) scale(0.12 -0.12)">
     <defs>
      <path id="DejaVuSans-43" d="M 4122 4306 
L 4122 3641 
Q 3803 3938 3442 4084 
Q 3081 4231 2675 4231 
Q 1875 4231 1450 3742 
Q 1025 3253 1025 2328 
Q 1025 1406 1450 917 
Q 1875 428 2675 428 
Q 3081 428 3442 575 
Q 3803 722 4122 1019 
L 4122 359 
Q 3791 134 3420 21 
Q 3050 -91 2638 -91 
Q 1578 -91 968 557 
Q 359 1206 359 2328 
Q 359 3453 968 4101 
Q 1578 4750 2638 4750 
Q 3056 4750 3426 4639 
Q 3797 4528 4122 4306 
z
" transform="scale(0.015625)"/>
      <path id="DejaVuSans-4e" d="M 628 4666 
L 1478 4666 
L 3547 763 
L 3547 4666 
L 4159 4666 
L 4159 0 
L 3309 0 
L 1241 3903 
L 1241 0 
L 628 0 
L 628 4666 
z
" transform="scale(0.015625)"/>
      <path id="DejaVuSans-42" d="M 1259 2228 
L 1259 519 
L 2272 519 
Q 2781 519 3026 730 
Q 3272 941 3272 1375 
Q 3272 1813 3026 2020 
Q 2781 2228 2272 2228 
L 1259 2228 
z
M 1259 4147 
L 1259 2741 
L 2194 2741 
Q 2656 2741 2882 2914 
Q 3109 3088 3109 3444 
Q 3109 3797 2882 3972 
Q 2656 4147 2194 4147 
L 1259 4147 
z
M 628 4666 
L 2241 4666 
Q 2963 4666 3353 4366 
Q 3744 4066 3744 3513 
Q 3744 3084 3544 2831 
Q 3344 2578 2956 2516 
Q 3422 2416 3680 2098 
Q 3938 1781 3938 1306 
Q 3938 681 3513 340 
Q 3088 0 2303 0 
L 628 0 
L 628 4666 
z
" transform="scale(0.015625)"/>
      <path id="DejaVuSans-6b" d="M 581 4863 
L 1159 4863 
L 1159 1991 
L 2875 3500 
L 3609 3500 
L 1753 1863 
L 3688 0 
L 2938 0 
L 1159 1709 
L 1159 0 
L 581 0 
L 581 4863 
z
" transform="scale(0.015625)"/>
     </defs>
     <use xlink:href="#DejaVuSans-43"/>
     <use xlink:href="#DejaVuSans-6f" transform="translate(69.824219 0)"/>
     <use xlink:href="#DejaVuSans-6e" transform="translate(131.005859 0)"/>
     <use xlink:href="#DejaVuSans-74" transform="translate(194.384766 0)"/>
     <use xlink:href="#DejaVuSans-72" transform="translate(233.59375 0)"/>
     <use xlink:href="#DejaVuSans-69" transform="translate(274.707031 0)"/>
     <use xlink:href="#DejaVuSans-62" transform="translate(302.490234 0)"/>
     <use xlink:href="#DejaVuSans-75" transform="translate(365.966797 0)"/>
     <use xlink:href="#DejaVuSans-74" transform="translate(429.345703 0)"/>
     <use xlink:href="#DejaVuSans-69" transform="translate(468.554688 0)"/>
     <use xlink:href="#DejaVuSans-6f" transform="translate(496.337891 0)"/>
     <use xlink:href="#DejaVuSans-6e" transform="translate(557.519531 0)"/>
     <use xlink:href="#DejaVuSans-20" transform="translate(620.898438 0)"/>
     <use xlink:href="#DejaVuSans-4e" transform="translate(652.685547 0)"/>
     <use xlink:href="#DejaVuSans-6f" transform="translate(727.490234 0)"/>
     <use xlink:href="#DejaVuSans-72" transform="translate(788.671875 0)"/>
     <use xlink:href="#DejaVuSans-6d" transform="translate(828.035156 0)"/>
     <use xlink:href="#DejaVuSans-20" transform="translate(925.447266 0)"/>
     <use xlink:href="#DejaVuSans-42" transform="translate(957.234375 0)"/>
     <use xlink:href="#DejaVuSans-79" transform="translate(1025.837891 0)"/>
     <use xlink:href="#DejaVuSans-20" transform="translate(1085.017578 0)"/>
     <use xlink:href="#DejaVuSans-54" transform="translate(1116.804688 0)"/>
     <use xlink:href="#DejaVuSans-6f" transform="translate(1160.888672 0)"/>
     <use xlink:href="#DejaVuSans-6b" transform="translate(1222.070312 0)"/>
     <use xlink:href="#DejaVuSans-65" transform="translate(1276.355469 0)"/>
     <use xlink:href="#DejaVuSans-6e" transform="translate(1337.878906 0)"/>
     <use xlink:href="#DejaVuSans-20" transform="translate(1401.257812 0)"/>
     <use xlink:href="#DejaVuSans-43" transform="translate(1433.044922 0)"/>
     <use xlink:href="#DejaVuSans-61" transform="translate(1502.869141 0)"/>
     <use xlink:href="#DejaVuSans-74" transform="translate(1564.148438 0)"/>
     <use xlink:href="#DejaVuSans-65" transform="translate(1603.357422 0)"/>
     <use xlink:href="#DejaVuSans-67" transform="translate(1664.880859 0)"/>
     <use xlink:href="#DejaVuSans-6f" transform="translate(1728.357422 0)"/>
     <use xlink:href="#DejaVuSans-72" transform="translate(1789.539062 0)"/>
     <use xlink:href="#DejaVuSans-79" transform="translate(1830.652344 0)"/>
    </g>
   </g>
   <g id="legend_3">
    <g id="line2d_83">
     <path d="M 886.539981 347.073248 
L 895.539981 347.073248 
L 904.539981 347.073248 
" style="fill: none; stroke: #3b6fb6; stroke-width: 2; stroke-linecap: square"/>
     <g>
      <use xlink:href="#md3df38c28a" x="895.539981" y="347.073248" style="fill: #3b6fb6; stroke: #3b6fb6"/>
     </g>
    </g>
    <g id="text_60">
     <!-- d384 -->
     <g transform="translate(911.739981 350.223248) scale(0.09 -0.09)">
      <use xlink:href="#DejaVuSans-64"/>
      <use xlink:href="#DejaVuSans-33" transform="translate(63.476562 0)"/>
      <use xlink:href="#DejaVuSans-38" transform="translate(127.099609 0)"/>
      <use xlink:href="#DejaVuSans-34" transform="translate(190.722656 0)"/>
     </g>
    </g>
    <g id="line2d_84">
     <path d="M 886.539981 360.28356 
L 895.539981 360.28356 
L 904.539981 360.28356 
" style="fill: none; stroke: #2e8b57; stroke-width: 2; stroke-linecap: square"/>
     <g>
      <use xlink:href="#m114cfc227e" x="895.539981" y="360.28356" style="fill: #2e8b57; stroke: #2e8b57"/>
     </g>
    </g>
    <g id="text_61">
     <!-- d768 -->
     <g transform="translate(911.739981 363.43356) scale(0.09 -0.09)">
      <use xlink:href="#DejaVuSans-64"/>
      <use xlink:href="#DejaVuSans-37" transform="translate(63.476562 0)"/>
      <use xlink:href="#DejaVuSans-36" transform="translate(127.099609 0)"/>
      <use xlink:href="#DejaVuSans-38" transform="translate(190.722656 0)"/>
     </g>
    </g>
    <g id="line2d_85">
     <path d="M 886.539981 373.493873 
L 895.539981 373.493873 
L 904.539981 373.493873 
" style="fill: none; stroke: #7a4eb3; stroke-width: 2; stroke-linecap: square"/>
     <g>
      <use xlink:href="#mee67e7c982" x="895.539981" y="373.493873" style="fill: #7a4eb3; stroke: #7a4eb3"/>
     </g>
    </g>
    <g id="text_62">
     <!-- d1536 -->
     <g transform="translate(911.739981 376.643873) scale(0.09 -0.09)">
      <use xlink:href="#DejaVuSans-64"/>
      <use xlink:href="#DejaVuSans-31" transform="translate(63.476562 0)"/>
      <use xlink:href="#DejaVuSans-35" transform="translate(127.099609 0)"/>
      <use xlink:href="#DejaVuSans-33" transform="translate(190.722656 0)"/>
      <use xlink:href="#DejaVuSans-36" transform="translate(254.345703 0)"/>
     </g>
    </g>
   </g>
  </g>
  <g id="text_63">
   <!-- Engram Usage Scaling At 500 Steps -->
   <g transform="translate(378.058125 21.358125) scale(0.12 -0.12)">
    <defs>
     <path id="DejaVuSans-55" d="M 556 4666 
L 1191 4666 
L 1191 1831 
Q 1191 1081 1462 751 
Q 1734 422 2344 422 
Q 2950 422 3222 751 
Q 3494 1081 3494 1831 
L 3494 4666 
L 4128 4666 
L 4128 1753 
Q 4128 841 3676 375 
Q 3225 -91 2344 -91 
Q 1459 -91 1007 375 
Q 556 841 556 1753 
L 556 4666 
z
" transform="scale(0.015625)"/>
    </defs>
    <use xlink:href="#DejaVuSans-45"/>
    <use xlink:href="#DejaVuSans-6e" transform="translate(63.183594 0)"/>
    <use xlink:href="#DejaVuSans-67" transform="translate(126.5625 0)"/>
    <use xlink:href="#DejaVuSans-72" transform="translate(190.039062 0)"/>
    <use xlink:href="#DejaVuSans-61" transform="translate(231.152344 0)"/>
    <use xlink:href="#DejaVuSans-6d" transform="translate(292.431641 0)"/>
    <use xlink:href="#DejaVuSans-20" transform="translate(389.84375 0)"/>
    <use xlink:href="#DejaVuSans-55" transform="translate(421.630859 0)"/>
    <use xlink:href="#DejaVuSans-73" transform="translate(494.824219 0)"/>
    <use xlink:href="#DejaVuSans-61" transform="translate(546.923828 0)"/>
    <use xlink:href="#DejaVuSans-67" transform="translate(608.203125 0)"/>
    <use xlink:href="#DejaVuSans-65" transform="translate(671.679688 0)"/>
    <use xlink:href="#DejaVuSans-20" transform="translate(733.203125 0)"/>
    <use xlink:href="#DejaVuSans-53" transform="translate(764.990234 0)"/>
    <use xlink:href="#DejaVuSans-63" transform="translate(828.466797 0)"/>
    <use xlink:href="#DejaVuSans-61" transform="translate(883.447266 0)"/>
    <use xlink:href="#DejaVuSans-6c" transform="translate(944.726562 0)"/>
    <use xlink:href="#DejaVuSans-69" transform="translate(972.509766 0)"/>
    <use xlink:href="#DejaVuSans-6e" transform="translate(1000.292969 0)"/>
    <use xlink:href="#DejaVuSans-67" transform="translate(1063.671875 0)"/>
    <use xlink:href="#DejaVuSans-20" transform="translate(1127.148438 0)"/>
    <use xlink:href="#DejaVuSans-41" transform="translate(1158.935547 0)"/>
    <use xlink:href="#DejaVuSans-74" transform="translate(1225.59375 0)"/>
    <use xlink:href="#DejaVuSans-20" transform="translate(1264.802734 0)"/>
    <use xlink:href="#DejaVuSans-35" transform="translate(1296.589844 0)"/>
    <use xlink:href="#DejaVuSans-30" transform="translate(1360.212891 0)"/>
    <use xlink:href="#DejaVuSans-30" transform="translate(1423.835938 0)"/>
    <use xlink:href="#DejaVuSans-20" transform="translate(1487.458984 0)"/>
    <use xlink:href="#DejaVuSans-53" transform="translate(1519.246094 0)"/>
    <use xlink:href="#DejaVuSans-74" transform="translate(1582.722656 0)"/>
    <use xlink:href="#DejaVuSans-65" transform="translate(1621.931641 0)"/>
    <use xlink:href="#DejaVuSans-70" transform="translate(1683.455078 0)"/>
    <use xlink:href="#DejaVuSans-73" transform="translate(1746.931641 0)"/>
   </g>
  </g>
 </g>
 <defs>
  <clipPath id="p0966285165">
   <rect x="66.35" y="48.6" width="406.948812" height="230.484654"/>
  </clipPath>
  <clipPath id="pa0053fe880">
   <rect x="541.509763" y="48.6" width="406.948812" height="230.484654"/>
  </clipPath>
  <clipPath id="pd5c227018a">
   <rect x="66.35" y="335.284654" width="406.948812" height="230.484654"/>
  </clipPath>
  <clipPath id="p63e63238b7">
   <rect x="541.509763" y="335.284654" width="406.948812" height="230.484654"/>
  </clipPath>
 </defs>
</svg>
